<?xml version="1.0" encoding="UTF-8"?>
<svg version="1.1" xmlns="http://www.w3.org/2000/svg" width="226" height="229">
<path d="M0 0 C74.58 0 149.16 0 226 0 C226 75.57 226 151.14 226 229 C151.42 229 76.84 229 0 229 C0 153.43 0 77.86 0 0 Z " fill="#FDFDFD" transform="translate(0,0)"/>
<path d="M0 0 C0.99 0 1.98 0 3 0 C3.43828125 0.81339844 3.8765625 1.62679687 4.328125 2.46484375 C8.62023838 10.22030878 13.32361584 17.47203648 18.49609375 24.66845703 C22.50140629 30.25035566 26.25501792 35.95100788 29.9296875 41.75390625 C31.86448819 44.78752771 33.8566786 47.77154595 35.875 50.75 C41.17156028 58.67929278 46.10370697 66.81954157 51 75 C51.34361572 75.57363281 51.68723145 76.14726563 52.04125977 76.73828125 C54.37561298 80.63791584 56.69955684 84.5435476 59.01345825 88.45535278 C59.79443959 89.77389191 60.57753371 91.09118195 61.36276245 92.40719604 C62.47097252 94.26642013 63.57050413 96.13051199 64.66796875 97.99609375 C65.31016357 99.08075928 65.9523584 100.1654248 66.61401367 101.28295898 C68 104 68 104 68 107 C24.77 107 -18.46 107 -63 107 C-61.21796168 101.65388503 -59.17372191 97.12590734 -56.5625 92.1875 C-56.12220459 91.3536377 -55.68190918 90.51977539 -55.22827148 89.66064453 C-51.03647454 81.85359828 -46.31715604 74.46184552 -41.39990234 67.09716797 C-35.09793595 57.65630796 -28.97477367 48.18173765 -23.48828125 38.24121094 C-5.22120695 5.22120695 -5.22120695 5.22120695 0 0 Z " fill="#F66944" transform="translate(114,48)"/>
<path d="M0 0 C0.99 0 1.98 0 3 0 C3.43828125 0.81339844 3.8765625 1.62679687 4.328125 2.46484375 C8.62023838 10.22030878 13.32361584 17.47203648 18.49609375 24.66845703 C22.50140629 30.25035566 26.25501792 35.95100788 29.9296875 41.75390625 C31.86448819 44.78752771 33.8566786 47.77154595 35.875 50.75 C41.17156028 58.67929278 46.10370697 66.81954157 51 75 C51.34361572 75.57363281 51.68723145 76.14726563 52.04125977 76.73828125 C54.37561298 80.63791584 56.69955684 84.5435476 59.01345825 88.45535278 C59.79443959 89.77389191 60.57753371 91.09118195 61.36276245 92.40719604 C62.47097252 94.26642013 63.57050413 96.13051199 64.66796875 97.99609375 C65.31016357 99.08075928 65.9523584 100.1654248 66.61401367 101.28295898 C68 104 68 104 68 107 C24.77 107 -18.46 107 -63 107 C-61.21796168 101.65388503 -59.17372191 97.12590734 -56.5625 92.1875 C-56.12220459 91.3536377 -55.68190918 90.51977539 -55.22827148 89.66064453 C-51.03647454 81.85359828 -46.31715604 74.46184552 -41.39990234 67.09716797 C-35.09793595 57.65630796 -28.97477367 48.18173765 -23.48828125 38.24121094 C-5.22120695 5.22120695 -5.22120695 5.22120695 0 0 Z M0 3 C-1.64911959 5.25579239 -1.64911959 5.25579239 -3.375 8.25 C-3.72095215 8.82645264 -4.0669043 9.40290527 -4.42333984 9.99682617 C-5.19865103 11.29019079 -5.97075536 12.58548131 -6.74023438 13.88232422 C-8.05085309 16.08548445 -9.37544869 18.27973685 -10.703125 20.47265625 C-15.06488401 27.69112287 -19.39253628 34.92550355 -23.6015625 42.234375 C-24.20919434 43.28713623 -24.81682617 44.33989746 -25.44287109 45.42456055 C-26.61017882 47.45150005 -27.77233825 49.48141715 -28.92822266 51.51489258 C-31.69562114 56.31873271 -34.57733393 60.87846879 -37.8984375 65.3203125 C-42.19187567 71.10252099 -45.79563161 77.20338444 -49.32958984 83.46313477 C-50.38653411 85.33290422 -51.45622697 87.19496082 -52.52734375 89.05664062 C-53.21430048 90.2625889 -53.90052575 91.4689542 -54.5859375 92.67578125 C-55.1948584 93.74739502 -55.8037793 94.81900879 -56.43115234 95.9230957 C-57.95019318 98.90231632 -59.03461373 101.80331901 -60 105 C-35.79186408 105.73034254 -11.59449986 106.10737519 12.625 106.125 C13.80536835 106.12749756 14.98573669 106.12999512 16.20187378 106.13256836 C32.4921347 106.16090492 48.728379 105.78548972 65 105 C63.74244185 101.8192531 62.42552552 98.73686687 60.875 95.6875 C60.52179688 94.99011719 60.16859375 94.29273438 59.8046875 93.57421875 C59.53914063 93.05472656 59.27359375 92.53523438 59 92 C58.34 92 57.68 92 57 92 C56.92136719 91.32839844 56.84273438 90.65679687 56.76171875 89.96484375 C55.76597466 86.08910138 53.86739389 82.95243576 51.8125 79.5625 C51.37615234 78.83240723 50.93980469 78.10231445 50.49023438 77.35009766 C38.87637426 58.06480776 26.39662222 39.34078839 13.62939453 20.80664062 C10.01353424 15.54050906 6.55433412 10.21849666 3.26953125 4.73828125 C2.64111328 3.87783203 2.64111328 3.87783203 2 3 C1.34 3 0.68 3 0 3 Z " fill="#633627" transform="translate(114,48)"/>
<path d="M0 0 C3.7142705 0.25324572 5.49861042 0.49442746 8.16552734 3.18359375 C11.36166089 8.09051371 10.67361258 13.29561736 10.625 19 C10.62242188 20.2384668 10.61984375 21.47693359 10.6171875 22.75292969 C10.38154989 34.19608128 7.89122142 44.2991411 4 55 C3.34 55 2.68 55 2 55 C-1.15234038 44.63566319 -3.80548748 34.90485836 -4 24 C-4.02964844 23.23413574 -4.05929688 22.46827148 -4.08984375 21.67919922 C-4.18876678 19.11956591 -4.25493314 16.56087522 -4.3125 14 C-4.34255127 13.1860376 -4.37260254 12.3720752 -4.40356445 11.53344727 C-4.44288536 7.38141914 -4.3324259 5.50410427 -1.98046875 1.9375 C-1.00013672 0.9784375 -1.00013672 0.9784375 0 0 Z " fill="#F8F8F8" transform="translate(112,69)"/>
<path d="M0 0 C3.29110633 2.10070617 4.8333853 3.75007795 7 7 C7.85378765 11.84979378 8.42345287 16.89963341 5.5625 21.12109375 C1.19389733 24.79389075 -3.07854611 25.87852635 -8.73046875 25.53125 C-13.4844061 24.41845227 -15.4433372 20.83499421 -18 17 C-18.66100598 12.95742659 -18.91928345 8.79827957 -17.01953125 5.08203125 C-12.08295618 -1.06970076 -7.32503515 -1.83125879 0 0 Z " fill="#F3E4F6" transform="translate(30,137)"/>
<path d="M0 0 C3.8076546 2.01159111 7.04834016 4.09668033 9 8 C9.73343371 14.39135094 8.77256944 17.79997185 5 23 C1.6579815 25.87784926 -1.49973524 26.64362859 -5.93359375 26.4921875 C-9.77873555 25.57633142 -12.50343318 22.97417091 -15 20 C-16.36439276 15.90682172 -16.77052642 12.26970603 -16 8 C-12.0450175 1.42864445 -7.73945853 -1.05210516 0 0 Z " fill="#E1C9E7" transform="translate(32,61)"/>
<path d="M0 0 C3.77327682 1.64055514 5.80680609 3.55705313 8 7 C8.80407057 11.0605564 8.93064111 15.22072831 6.98046875 18.94921875 C4.85618473 21.59976044 3.23500981 22.9216634 0 24 C-5.35234642 24.34531267 -8.65531768 24.47574585 -13 21 C-16.40733537 17.18742329 -16.50549424 14.37090456 -16.359375 9.41015625 C-15.85149602 6.00405483 -14.51178164 4.29648608 -12 2 C-7.9556813 -0.69621247 -4.74665346 -0.54319098 0 0 Z " fill="#8D33A1" transform="translate(22,98)"/>
<path d="M0 0 C3.676999 2.03649176 6.76247686 4.91617364 8 9 C8.61924854 13.64436405 7.63624115 16.59543357 5.1953125 20.453125 C2.49686455 23.94523411 -0.11017663 24.85169611 -4.375 25.5625 C-9.2143014 24.81157392 -11.74360418 22.55075928 -15 19 C-16.72589785 15.54820431 -16.36043965 11.78133961 -16 8 C-13.15153006 1.10370435 -7.27944085 -1.53851196 0 0 Z " fill="#A87FB4" transform="translate(126,11)"/>
<path d="M0 0 C3.8026029 2.0050088 5.61790841 3.42686262 8 7 C8.67581494 10.73476676 8.80786958 14.41764389 7.0546875 17.8515625 C4.50877033 21.10201021 2.0297315 23.15656783 -2 24 C-6.71646931 24.1536935 -9.2806879 23.61218051 -12.9375 20.5 C-13.618125 19.675 -14.29875 18.85 -15 18 C-15.33 17.67 -15.66 17.34 -16 17 C-16.54740745 12.154098 -16.74611856 8.23495486 -14.1875 4 C-9.52313164 -0.26456536 -6.11429982 -0.86601857 0 0 Z " fill="#8D3AA6" transform="translate(80,192)"/>
<path d="M0 0 C2.1875 1.125 2.1875 1.125 4.1875 4.125 C4.234375 6.28125 4.234375 6.28125 3.9375 8.625 C3.84984375 9.3984375 3.7621875 10.171875 3.671875 10.96875 C3.1875 13.125 3.1875 13.125 1.1875 16.125 C19.6675 16.455 38.1475 16.785 57.1875 17.125 C57.1875 17.455 57.1875 17.785 57.1875 18.125 C38.82433995 19.04227171 20.50850381 19.24971351 2.125 19.1875 C-0.50716059 19.18246657 -3.13932213 19.17790697 -5.77148438 19.17382812 C-12.11851089 19.16298784 -18.46550074 19.14640076 -24.8125 19.125 C-24.8125 18.795 -24.8125 18.465 -24.8125 18.125 C-21.8425 17.795 -18.8725 17.465 -15.8125 17.125 C-15.94269531 16.24457031 -16.07289062 15.36414063 -16.20703125 14.45703125 C-17.34513412 4.87356687 -17.34513412 4.87356687 -14.5 0.875 C-9.31587102 -2.50071189 -5.89622639 -1.83438154 0 0 Z " fill="#DA6A4D" transform="translate(121.8125,134.875)"/>
<path d="M0 0 C3.51039048 2.02887433 5.6902463 4.07073891 7 8 C7.12781786 10.67394964 7.04391871 13.32095857 7 16 C6.34 16 5.68 16 5 16 C4.773125 16.598125 4.54625 17.19625 4.3125 17.8125 C2.57570471 20.70715882 1.0816964 21.63035715 -2 23 C-6.3558698 23.55438343 -8.43700886 23.30805175 -12.3125 21.1875 C-14.99992673 19.00005964 -16.79199441 17.44253231 -17.30078125 13.9140625 C-17.32524163 9.13613505 -17.23487615 5.79261342 -14 2 C-9.67858881 -1.81300988 -5.29503147 -1.54477192 0 0 Z " fill="#A787B1" transform="translate(50,170)"/>
<path d="M0 0 C3.12578143 1.6720747 5.39281175 3.7856235 7 7 C7.34717992 12.29449372 7.52421718 15.74663444 4 20 C0.33146322 23.12904608 -3.10102595 23.57021124 -7.77734375 23.4296875 C-11.58350909 22.69387346 -13.35670706 20.77545759 -16 18 C-17.74221711 14.51556578 -17.58675154 10.80112955 -17 7 C-13.05743886 -0.12014773 -7.58623364 -1.06881086 0 0 Z " fill="#A884B2" transform="translate(211,78)"/>
<path d="M0 0 C2.6875 1.25 2.6875 1.25 5 3 C5.763125 3.515625 6.52625 4.03125 7.3125 4.5625 C10.00860291 8.45687087 9.74227598 12.42015719 9 17 C6.95835443 20.49996383 4.90910064 22.80555258 1 24 C-5.67771334 24.75393538 -5.67771334 24.75393538 -8.78125 22.984375 C-12.46457437 19.98716007 -14.83276801 17.47721591 -15.375 12.6875 C-14.85131045 7.53788606 -12.71891887 4.77819193 -9.1875 1.125 C-5.96860302 -0.53043273 -3.56753756 -0.37553027 0 0 Z " fill="#9B73A7" transform="translate(202,146)"/>
<path d="M0 0 C3.35251576 1.74610196 6.0913556 3.90205468 8.5 6.8125 C9.70802316 12.09760134 8.63753027 15.90424485 6 20.4375 C2.58336064 23.35587945 0.61674755 24.02929462 -3.78515625 24.234375 C-8.43464144 23.74236598 -11.04239462 21.18104664 -13.875 17.6875 C-15.3877643 14.07367417 -15.60395126 11.89213031 -15 8 C-11.19001687 1.96153618 -7.36774788 -0.85012476 0 0 Z " fill="#B291BA" transform="translate(114,200)"/>
<path d="M0 0 C2.75 2.1875 2.75 2.1875 4.75 5.1875 C5.18121354 10.53454794 5.21830537 13.85211829 1.75 18.1875 C-0.77549299 21.00439603 -2.96884281 21.4605238 -6.625 21.6875 C-10.02131147 21.57559517 -12.02046181 21.06064588 -14.6875 18.9375 C-18.56462926 14.77667836 -18.56462926 14.77667836 -19.25 12.1875 C-19.05849752 6.92118174 -18.04603459 3.87808918 -14.25 0.1875 C-9.22354728 -2.5902765 -5.03167761 -2.8061279 0 0 Z " fill="#F5EAF9" transform="translate(213.25,113.8125)"/>
<path d="M0 0 C3.0717718 1.71077974 5.40485654 3.80971307 7 7 C7.3439098 12.24462442 7.55893905 15.80553612 4 20 C1.8125 20.8125 1.8125 20.8125 0 21 C0 21.66 0 22.32 0 23 C-7.9529703 23.62376238 -7.9529703 23.62376238 -11.9375 21.25 C-14.99092049 17.91899583 -15.87145424 16.15691184 -16.375 11.625 C-15.93060645 7.32919568 -14.70408706 5.32216411 -12 2 C-7.97818385 -0.68121076 -4.72763609 -0.81344335 0 0 Z " fill="#A687AE" transform="translate(182,176)"/>
<path d="M0 0 C3.75966883 1.25322294 4.13149973 2.4394228 6.0625 5.8125 C6.56910156 6.68519531 7.07570313 7.55789062 7.59765625 8.45703125 C8.78797902 10.61552742 9.92062656 12.78444398 11 15 C10.01 15.33 9.02 15.66 8 16 C8.32307129 16.69335449 8.64614258 17.38670898 8.97900391 18.10107422 C10.90285792 23.56349473 10.38168441 29.38906976 10.375 35.125 C10.37567978 36.12877686 10.37567978 36.12877686 10.37637329 37.15283203 C10.34972999 50.53458074 9.5304446 64.02439959 3 76 C1.68 75.67 0.36 75.34 -1 75 C-1.495 72.525 -1.495 72.525 -2 70 C-1.34 70.33 -0.68 70.66 0 71 C0 71.66 0 72.32 0 73 C0.66 73 1.32 73 2 73 C2.10957031 72.40574219 2.21914062 71.81148438 2.33203125 71.19921875 C2.49058594 70.37035156 2.64914063 69.54148437 2.8125 68.6875 C2.96332031 67.88699219 3.11414063 67.08648437 3.26953125 66.26171875 C4 63 4 63 4.72607422 60.6953125 C7.11100711 52.9517647 7.5170492 45.69779675 7.5 37.625 C7.54253906 35.75908203 7.54253906 35.75908203 7.5859375 33.85546875 C7.87243367 26.69024887 7.87243367 26.69024887 4.63671875 20.6484375 C2.13846624 18.76255407 2.13846624 18.76255407 -0.6875 19 C-3.31863969 19.8891283 -3.31863969 19.8891283 -5 23 C-5.36798693 25.71075544 -5.36798693 25.71075544 -5.4140625 28.76171875 C-5.45273438 29.87998047 -5.49140625 30.99824219 -5.53125 32.15039062 C-5.5621875 33.31763672 -5.593125 34.48488281 -5.625 35.6875 C-5.66367188 36.86634766 -5.70234375 38.04519531 -5.7421875 39.25976562 C-5.83654391 42.17301977 -5.92213161 45.08626607 -6 48 C-6.33 48 -6.66 48 -7 48 C-7.83855129 41.50122752 -8.10930326 35.10673118 -8.125 28.5625 C-8.12951172 27.76924316 -8.13402344 26.97598633 -8.13867188 26.15869141 C-8.13017653 22.85329533 -8.05228544 20.15685631 -7 17 C-7.66 17 -8.32 17 -9 17 C-9.28875 17.804375 -9.5775 18.60875 -9.875 19.4375 C-11 22 -11 22 -13 23 C-11.26946315 18.05560901 -8.60713969 13.72834891 -5.9375 9.25 C-5.47794922 8.47011719 -5.01839844 7.69023438 -4.54492188 6.88671875 C-1.14457289 1.14457289 -1.14457289 1.14457289 0 0 Z " fill="#EF6946" transform="translate(114,51)"/>
<path d="M0 0 C3.13231968 1.44086705 5.14745298 3.08310142 7 6 C8.13925754 10.8925649 7.78030429 14.6623355 5.25 19 C1.9079525 21.97070889 0.10093393 22.85728634 -4.375 23.4375 C-9.23844407 22.85053261 -10.60199844 21.47702486 -14 18 C-16.54715119 14.52661201 -16.5078513 11.20791074 -16 7 C-12.03209634 0.39174409 -7.38270684 -1.2144192 0 0 Z " fill="#9C6FA9" transform="translate(93,15)"/>
<path d="M0 0 C3.98483302 2.86132026 5.78107769 5.75214283 6.625 10.5625 C5.88021593 14.6588124 4.71125983 16.84907641 2 20 C-1.64545609 22.11052721 -4.83234735 22.43413048 -9 22 C-12.45273673 20.55466834 -13.77628342 19.34714641 -15.8125 16.1875 C-17.13583162 12.63539934 -17.68672439 10.7388328 -17 7 C-12.34633905 0.08354978 -8.27592357 -2.4675283 0 0 Z " fill="#9857AB" transform="translate(161,23)"/>
<path d="M0 0 C1.23534045 3.70602135 1.45528745 6.09753614 1 10 C-1.10202751 13.27269513 -3.488407 16.2442035 -7 18 C-11.85948491 18.57654906 -14.93763467 18.56673245 -19 15.6875 C-21.30470909 13.50850231 -21.94209955 12.34740268 -22.46875 9.1875 C-22.49781835 6.39693824 -22.41370919 3.75962834 -22 1 C-19.83557561 -1.16442439 -15.13446092 -0.46733949 -12.125 -0.625 C-11.29613281 -0.6765625 -10.46726562 -0.728125 -9.61328125 -0.78125 C-8.81535156 -0.82507812 -8.01742187 -0.86890625 -7.1953125 -0.9140625 C-6.09727295 -0.9752124 -6.09727295 -0.9752124 -4.97705078 -1.03759766 C-3 -1 -3 -1 0 0 Z " fill="#9346AB" transform="translate(64,36)"/>
<path d="M0 0 C0.99 0 1.98 0 3 0 C4.34130761 2.26645058 5.67316234 4.53760097 7 6.8125 C7.3815625 7.45509766 7.763125 8.09769531 8.15625 8.75976562 C11 13.66015625 11 13.66015625 11 17 C6.76568424 13.39299028 4.5307901 8.85413839 2 4 C1.34 4 0.68 4 0 4 C-1.58719928 6.19670363 -1.58719928 6.19670363 -3.203125 9.0625 C-3.84668945 10.15763916 -4.49025391 11.25277832 -5.15332031 12.38110352 C-5.85225512 13.58737825 -6.55114728 14.7936777 -7.25 16 C-7.97161847 17.23210688 -8.69395715 18.46379222 -9.41699219 19.69506836 C-12.88837844 25.61574897 -16.32389099 31.55692357 -19.75 37.50390625 C-25.3501764 47.20737358 -31.03788561 56.72531589 -37.37182617 65.96801758 C-41.9285963 72.70553312 -46.01300372 79.70138037 -50.0625 86.75 C-50.70630615 87.87003418 -51.3501123 88.99006836 -52.01342773 90.14404297 C-54.81259424 95.05087418 -57.47109245 99.94218491 -60 105 C-45.81 105 -31.62 105 -17 105 C-17 105.33 -17 105.66 -17 106 C-31.52 106 -46.04 106 -61 106 C-62 103 -62 103 -61.27832031 101.00146484 C-60.68422363 99.86765381 -60.68422363 99.86765381 -60.078125 98.7109375 C-59.63533203 97.86047852 -59.19253906 97.01001953 -58.73632812 96.13378906 C-58.0005957 94.76818848 -58.0005957 94.76818848 -57.25 93.375 C-56.74919922 92.43366211 -56.24839844 91.49232422 -55.73242188 90.52246094 C-51.35668926 82.4199623 -46.51048421 74.70761595 -41.38378906 67.06494141 C-35.07191935 57.64613512 -28.96827761 48.16996798 -23.48828125 38.24121094 C-5.22120695 5.22120695 -5.22120695 5.22120695 0 0 Z " fill="#764739" transform="translate(114,48)"/>
<path d="M0 0 C3.6578218 2.03993908 5.66946174 3.50419262 8 7 C8.48692434 11.30116499 8.28241006 13.48387126 6.1875 17.3125 C3.99705293 20.00362069 2.41320703 21.74858676 -1.0859375 22.37109375 C-5.5192812 22.49970611 -7.40326135 22.45059857 -11.0625 19.6875 C-13 17 -13 17 -13 14 C-9.535 13.505 -9.535 13.505 -6 13 C-6 12.01 -6 11.02 -6 10 C-7.32 10 -8.64 10 -10 10 C-9.67 8.68 -9.34 7.36 -9 6 C-8.34 6 -7.68 6 -7 6 C-7 6.99 -7 7.98 -7 9 C-6.34 9 -5.68 9 -5 9 C-4.67 8.01 -4.34 7.02 -4 6 C-4.66 6 -5.32 6 -6 6 C-6 5.34 -6 4.68 -6 4 C-4.68 3.67 -3.36 3.34 -2 3 C-1 6 -1 6 -2 9 C-1.34 9 -0.68 9 0 9 C0 8.01 0 7.02 0 6 C1.32 6.33 2.64 6.66 4 7 C4 8.32 4 9.64 4 11 C2.68 11.33 1.36 11.66 0 12 C2.97 12.495 2.97 12.495 6 13 C4.94472799 8.1563543 4.94472799 8.1563543 2.3125 4.0625 C-0.98402574 2.54788006 -3.41070732 2.62217972 -7 3 C-9.87146994 4.36997157 -9.87146994 4.36997157 -12 6 C-11.05275873 3.63189682 -10.34708866 2.24792047 -8.25 0.75 C-5.25035738 -0.24988087 -3.15310017 -0.37837202 0 0 Z " fill="#8A37A3" transform="translate(149,194)"/>
<path d="M0 0 C5.70769231 3.12307692 5.70769231 3.12307692 7 7 C6.34 7 5.68 7 5 7 C4.67 6.34 4.34 5.68 4 5 C0.88036045 6.36018991 -1.00834822 7.83260134 -3.1875 10.4375 C-3.69667969 11.03433594 -4.20585937 11.63117187 -4.73046875 12.24609375 C-6.19491807 14.08459819 -6.19491807 14.08459819 -7 17 C-7.99 17 -8.98 17 -10 17 C-10 17.99 -10 18.98 -10 20 C-9.030625 19.236875 -8.06125 18.47375 -7.0625 17.6875 C-6.51722656 17.25824219 -5.97195312 16.82898438 -5.41015625 16.38671875 C-3.72844923 14.94316909 -3.72844923 14.94316909 -3 12 C-2.01 11.67 -1.02 11.34 0 11 C0.66 10.01 1.32 9.02 2 8 C2.66 8 3.32 8 4 8 C2.43528652 11.84066037 -0.06034127 14.13033315 -3 17 C-4.35555293 18.64864545 -5.69631653 20.31003995 -7 22 C-2.38542302 19.43634612 1.28456381 17.14630856 3 12 C3.99 12 4.98 12 6 12 C5.875 13.6875 5.875 13.6875 5 16 C3.02043058 17.69088222 1.02054804 19.35830472 -1 21 C-1.33 21.99 -1.66 22.98 -2 24 C-6.38334042 23.8281043 -8.51975534 23.39850089 -11.9375 20.5625 C-14.50562265 17.03026485 -14.70831125 13.61634801 -14.49609375 9.33984375 C-13.05549308 2.54519965 -6.39776162 -0.75267784 0 0 Z " fill="#A579AF" transform="translate(187,45)"/>
<path d="M0 0 C3.39246028 1.19194551 5.70348581 2.20815922 8 5 C9.21449765 8.62279127 9.70249634 12.29494608 8.22265625 15.88671875 C6.01534089 18.95615054 3.67500954 20.41639236 0.0625 21.125 C-4.26225484 21.37891553 -6.71686779 19.80267384 -10 17 C-11.72617094 13.54765812 -11.50110436 9.77455234 -11 6 C-9 2.9375 -9 2.9375 -7 1 C-5.68 1.33 -4.36 1.66 -3 2 C-3.33 6.95 -3.66 11.9 -4 17 C-2.35 17.33 -0.7 17.66 1 18 C1.91216219 14.26285788 2.01078421 11.13384903 1.625 7.3125 C1.53476563 6.35988281 1.44453125 5.40726562 1.3515625 4.42578125 C1.12924317 1.99656732 1.12924317 1.99656732 0 0 Z " fill="#F9F3FB" transform="translate(207,79)"/>
<path d="M0 0 C2.95754379 1.71728349 4.82098869 3.42056888 6.9375 6.125 C7.37029185 10.23652256 6.94217093 13.10631626 5.9375 17.125 C1.6475 17.125 -2.6425 17.125 -7.0625 17.125 C-9.12631526 11.96546185 -9.54566288 10.3160701 -8.0625 5.125 C-5.91078283 2.42376737 -3.60245145 0.21833039 0 0 Z " fill="#8B35A5" transform="translate(25.0625,139.875)"/>
<path d="M0 0 C3.0538034 2.33053417 4.45440934 4.18086537 5 8 C3.02 8 1.04 8 -1 8 C-1 6.68 -1 5.36 -1 4 C-1.66 4 -2.32 4 -3 4 C-3.33 4.99 -3.66 5.98 -4 7 C-5 8 -5 8 -7.5625 8.0625 C-8.366875 8.041875 -9.17125 8.02125 -10 8 C-10.66 9.32 -11.32 10.64 -12 12 C-11.34 12 -10.68 12 -10 12 C-10 13.32 -10 14.64 -10 16 C-9.34 16 -8.68 16 -8 16 C-8 13.69 -8 11.38 -8 9 C-7.67 9 -7.34 9 -7 9 C-7 11.64 -7 14.28 -7 17 C-6.34 17 -5.68 17 -5 17 C-5 14.69 -5 12.38 -5 10 C-4.34 10.66 -3.68 11.32 -3 12 C-2.5875 11.484375 -2.175 10.96875 -1.75 10.4375 C-0.88375 9.7259375 -0.88375 9.7259375 0 9 C2.1875 9.3125 2.1875 9.3125 4 10 C4 12.31702962 3.85494315 13.82975971 3 16 C0.14678494 18.34970652 -1.82882214 18.97554602 -5.5 19.5 C-9.94240689 18.86537044 -11.29050802 17.50640138 -14 14 C-15.141264 11.10294524 -15 9.22847003 -15 6 C-10.39735402 -0.3441877 -7.7045296 -1.75717342 0 0 Z " fill="#EFDCF5" transform="translate(116,203)"/>
<path d="M0 0 C3.34009923 0.2783416 4.81319624 0.83777568 7.375 3.0625 C9.3010877 6.54427391 9.34147498 8.36789574 8.59765625 12.1953125 C8 14 8 14 6.4375 16 C2.67900047 17.54194852 0.06608455 17.45178717 -4 17 C-6 15.5 -6 15.5 -7 13 C-7.4042511 9.13629233 -7.23857716 5.71573149 -6 2 C-4.02 2 -2.04 2 0 2 C0 1.34 0 0.68 0 0 Z " fill="#8C34A5" transform="translate(199,149)"/>
<path d="M0 0 C1.38226016 2.76452033 1.09525387 5.0461363 1.0625 8.125 C1.05347656 9.22070312 1.04445313 10.31640625 1.03515625 11.4453125 C1.02355469 12.28835937 1.01195313 13.13140625 1 14 C-0.32 13.67 -1.64 13.34 -3 13 C-3 13.99 -3 14.98 -3 16 C-2.34 16 -1.68 16 -1 16 C-1 16.66 -1 17.32 -1 18 C-1.99 18 -2.98 18 -4 18 C-4 17.34 -4 16.68 -4 16 C-5.98 16.99 -7.96 17.98 -10 19 C-12.09933151 17.29603331 -12.92588781 16.39392968 -13.43359375 13.6953125 C-13.44015976 9.37487822 -13.43000228 6.72655558 -11.1875 2.9375 C-7.60493766 -0.23562665 -4.60656283 -0.10236806 0 0 Z " fill="#F9F3FA" transform="translate(79,193)"/>
<path d="M0 0 C4.34369658 0.16706525 6.48413663 0.573852 9.875 3.375 C16.07929754 11.03913226 13.53137388 25.67263523 13 35 C11.97781676 43.75584415 10.26529279 52.22714552 6 60 C4.68 59.67 3.36 59.34 2 59 C1.67 57.35 1.34 55.7 1 54 C1.66 54.33 2.32 54.66 3 55 C3 55.66 3 56.32 3 57 C3.66 57 4.32 57 5 57 C5.10957031 56.40574219 5.21914062 55.81148437 5.33203125 55.19921875 C5.49058594 54.37035156 5.64914063 53.54148438 5.8125 52.6875 C6.03873047 51.48673828 6.03873047 51.48673828 6.26953125 50.26171875 C7 47 7 47 7.72607422 44.6953125 C10.11100711 36.9517647 10.5170492 29.69779675 10.5 21.625 C10.52835938 20.38105469 10.55671875 19.13710937 10.5859375 17.85546875 C10.87243367 10.69024887 10.87243367 10.69024887 7.63671875 4.6484375 C5.13846624 2.76255407 5.13846624 2.76255407 2.3125 3 C-0.31863969 3.8891283 -0.31863969 3.8891283 -2 7 C-2.36798693 9.71075544 -2.36798693 9.71075544 -2.4140625 12.76171875 C-2.45273438 13.87998047 -2.49140625 14.99824219 -2.53125 16.15039062 C-2.5621875 17.31763672 -2.593125 18.48488281 -2.625 19.6875 C-2.66367188 20.86634766 -2.70234375 22.04519531 -2.7421875 23.25976562 C-2.83654391 26.17301977 -2.92213161 29.08626607 -3 32 C-3.33 32 -3.66 32 -4 32 C-6.76949404 10.09132394 -6.76949404 10.09132394 -1 1 C-0.67 0.67 -0.34 0.34 0 0 Z " fill="#693729" transform="translate(111,67)"/>
<path d="M0 0 C0.59355614 2.64860427 0.74209269 5.29197322 1 8 C1.33 7.34 1.66 6.68 2 6 C2.66 6 3.32 6 4 6 C4 7.65 4 9.3 4 11 C0.37 11 -3.26 11 -7 11 C-7 10.01 -7 9.02 -7 8 C-7.99 8 -8.98 8 -10 8 C-10 8.99 -10 9.98 -10 11 C-12.64 10.67 -15.28 10.34 -18 10 C-17.72603479 6.07316532 -17.22390251 4.27231386 -14.6875 1.1875 C-9.97699016 -2.64663591 -5.54032136 -2.77016068 0 0 Z " fill="#F7E5F9" transform="translate(25,101)"/>
<path d="M0 0 C2.875 1 2.875 1 5 3 C5.63183067 7.42281469 5.79122453 9.68129245 3.5 13.5 C-0.25648836 15.75389302 -2.64579381 15.48380069 -7 15 C-9 14 -9 14 -10 12 C-10.75912409 5.16788321 -10.75912409 5.16788321 -8.375 1.5 C-5.28147204 -0.45380713 -3.60630834 -0.51518691 0 0 Z " fill="#F4F4F3" transform="translate(117,135)"/>
<path d="M0 0 C4.36258722 0.74412023 7.12502575 2.33014867 10.5625 5.0625 C8.49695094 9.08488501 6.75185171 11.25346176 2.5625 13.0625 C-1.9477277 13.63652898 -3.9109284 13.36886893 -7.875 11.0625 C-8.720625 10.4025 -9.56625 9.7425 -10.4375 9.0625 C-10.11147104 6.12823933 -9.17581322 4.69450296 -7.4375 2.25 C-4.25530858 -0.07034791 -3.70449833 -0.27487003 0 0 Z " fill="#8A2FA6" transform="translate(45.4375,179.9375)"/>
<path d="M0 0 C0.99 0.33 1.98 0.66 3 1 C3 1.66 3 2.32 3 3 C3.99 2.67 4.98 2.34 6 2 C7.55030118 3.55030118 7.24405099 5.03676001 7.3125 7.1875 C7.2605772 11.84571708 6.12648571 14.43928017 3 18 C0.32655486 19.78229676 -0.73770359 20 -4 20 C-3.875 18.3125 -3.875 18.3125 -3 16 C-1.02043058 14.30911778 0.97945196 12.64169528 3 11 C3.33 10.01 3.66 9.02 4 8 C3.01 8 2.02 8 1 8 C0.89429688 8.59296875 0.78859375 9.1859375 0.6796875 9.796875 C-0.09407599 12.30493596 -1.01846791 13.42117734 -2.875 15.25 C-3.64457031 16.03117187 -3.64457031 16.03117187 -4.4296875 16.828125 C-6 18 -6 18 -9 18 C-7.71480435 15.13302508 -6.42870746 13.02392288 -4 11 C-3.34 11 -2.68 11 -2 11 C-1.566875 10.1028125 -1.566875 10.1028125 -1.125 9.1875 C0 7 0 7 2 4 C1.401875 4.66 0.80375 5.32 0.1875 6 C-2 8 -2 8 -5 8 C-5.0825 8.5775 -5.165 9.155 -5.25 9.75 C-6.21797787 12.6539336 -7.68694284 14.03740604 -10 16 C-10.66 16 -11.32 16 -12 16 C-12 15.01 -12 14.02 -12 13 C-11.01 13 -10.02 13 -9 13 C-8.91878906 12.43796875 -8.83757812 11.8759375 -8.75390625 11.296875 C-7.75955531 8.26745347 -6.09624473 6.58007368 -3.9375 4.25 C-3.20402344 3.45078125 -2.47054687 2.6515625 -1.71484375 1.828125 C-1.14894531 1.22484375 -0.58304688 0.6215625 0 0 Z " fill="#B892C3" transform="translate(189,49)"/>
<path d="M0 0 C3.34213802 2.1268151 5.89264987 4.12427456 7 8 C6.47916667 14.04166667 6.47916667 14.04166667 5 17 C4.34 17 3.68 17 3 17 C3 16.01 3 15.02 3 14 C1.02 14.99 1.02 14.99 -1 16 C-0.42415568 13.61435923 0.22227595 11.33317216 1 9 C1.66 8.67 2.32 8.34 3 8 C2.67 7.01 2.34 6.02 2 5 C-1.63 4.67 -5.26 4.34 -9 4 C-9 4.66 -9 5.32 -9 6 C-9.66 6 -10.32 6 -11 6 C-11 6.66 -11 7.32 -11 8 C-9.68 8 -8.36 8 -7 8 C-3 12.22222222 -3 12.22222222 -3 15 C-4.32 14.67 -5.64 14.34 -7 14 C-7 15.65 -7 17.3 -7 19 C-9.46800047 17.84826645 -11.04783565 16.95216435 -13 15 C-13.57039258 11.94389661 -13.5337277 9.05968651 -13 6 C-9.09478849 1.06710125 -6.26592315 -0.61430619 0 0 Z " fill="#E1BFE8" transform="translate(181,177)"/>
<path d="M0 0 C1.60725635 3.21451269 1.05748185 6.43612536 1 10 C3.31 10.33 5.62 10.66 8 11 C8.0825 9.88625 8.165 8.7725 8.25 7.625 C9 4 9 4 11.0625 2.5625 C11.701875 2.376875 12.34125 2.19125 13 2 C15.09749995 4.35968744 15.96905704 5.54616994 16.1875 8.75 C16.0946875 9.86375 16.0946875 9.86375 16 11 C17.32 11.33 18.64 11.66 20 12 C16.25 16.875 16.25 16.875 14 18 C9.14051509 18.57654906 6.06236533 18.56673245 2 15.6875 C-0.30470909 13.50850231 -0.94209955 12.34740268 -1.46875 9.1875 C-1.49781835 6.39693824 -1.41370919 3.75962834 -1 1 C-0.67 0.67 -0.34 0.34 0 0 Z " fill="#9752AB" transform="translate(43,36)"/>
<path d="M0 0 C3.8076546 2.01159111 7.04834016 4.09668033 9 8 C9.73343371 14.39135094 8.77256944 17.79997185 5 23 C1.6579815 25.87784926 -1.49973524 26.64362859 -5.93359375 26.4921875 C-9.77873555 25.57633142 -12.50343318 22.97417091 -15 20 C-16.36439276 15.90682172 -16.77052642 12.26970603 -16 8 C-12.0450175 1.42864445 -7.73945853 -1.05210516 0 0 Z M-13 7 C-14.49475812 9.98951623 -15 11.6469189 -15 15 C-14.34 15 -13.68 15 -13 15 C-12.67 16.98 -12.34 18.96 -12 21 C-9.37472811 21.05382106 -6.75055287 21.09358313 -4.125 21.125 C-3.00544922 21.15013672 -3.00544922 21.15013672 -1.86328125 21.17578125 C0.09194461 21.1933959 2.04742021 21.10320189 4 21 C6.88300904 18.11699096 6.70972889 15.43698035 7.03515625 11.48046875 C6.98860831 8.19625284 6.15194164 6.45936188 4 4 C-2.29646948 -0.19764632 -8.51476715 0.88377339 -13 7 Z " fill="#A27BAF" transform="translate(32,61)"/>
<path d="M0 0 C3.3125 2.0625 3.3125 2.0625 6 5 C6.875 8.8125 6.875 8.8125 7 12 C6.31550781 11.67257813 5.63101563 11.34515625 4.92578125 11.0078125 C1.51087941 9.83151788 -1.21031284 9.80222854 -4.8125 9.875 C-5.97394531 9.89304687 -7.13539062 9.91109375 -8.33203125 9.9296875 C-9.21246094 9.95289063 -10.09289062 9.97609375 -11 10 C-11 10.66 -11 11.32 -11 12 C-12.32 12.33 -13.64 12.66 -15 13 C-15.36923077 6.47692308 -15.36923077 6.47692308 -13.5 4.0625 C-13.005 3.711875 -12.51 3.36125 -12 3 C-11.34 3.33 -10.68 3.66 -10 4 C-10 3.34 -10 2.68 -10 2 C-6.57192418 -0.10958512 -3.99176419 -0.55884699 0 0 Z " fill="#D7B5E0" transform="translate(92,16)"/>
<path d="M0 0 C2.75569447 2.18159145 4.43588747 3.87177494 6 7 C6.039992 8.99960012 6.04346799 11.00047242 6 13 C4.02 13 2.04 13 0 13 C0 10.69 0 8.38 0 6 C-2.64 6 -5.28 6 -8 6 C-8 7.65 -8 9.3 -8 11 C-10.16874252 10.49396008 -11.99967627 10.00016187 -14 9 C-13.71827807 5.83062828 -13.51665615 3.64582019 -11.5 1.125 C-7.67413834 -0.59663775 -4.11430058 -0.8067256 0 0 Z " fill="#EBD8F1" transform="translate(33,63)"/>
<path d="M0 0 C2.75 2.1875 2.75 2.1875 4.75 5.1875 C5.18121354 10.53454794 5.21830537 13.85211829 1.75 18.1875 C-0.77549299 21.00439603 -2.96884281 21.4605238 -6.625 21.6875 C-10.02131147 21.57559517 -12.02046181 21.06064588 -14.6875 18.9375 C-18.56462926 14.77667836 -18.56462926 14.77667836 -19.25 12.1875 C-19.05849752 6.92118174 -18.04603459 3.87808918 -14.25 0.1875 C-9.22354728 -2.5902765 -5.03167761 -2.8061279 0 0 Z M-16.25 5.1875 C-16.25 6.1775 -16.25 7.1675 -16.25 8.1875 C-15.59 8.1875 -14.93 8.1875 -14.25 8.1875 C-14.29640625 8.80238281 -14.3428125 9.41726562 -14.390625 10.05078125 C-14.75994204 15.00491647 -14.75994204 15.00491647 -12.625 19.25 C-9.51537429 20.47748383 -7.57705942 20.65328832 -4.25 20.1875 C-0.92191761 18.30336085 -0.92191761 18.30336085 1.75 16.1875 C1.42 13.8775 1.09 11.5675 0.75 9.1875 C1.41 9.1875 2.07 9.1875 2.75 9.1875 C2.47253508 5.85792093 1.93903896 4.39945277 -0.3125 1.875 C-6.7284028 -1.8107314 -11.75859734 -0.84782232 -16.25 5.1875 Z " fill="#926FA0" transform="translate(213.25,113.8125)"/>
<path d="M0 0 C0.70125 0.268125 1.4025 0.53625 2.125 0.8125 C2.455 2.1325 2.785 3.4525 3.125 4.8125 C2.135 5.1425 1.145 5.4725 0.125 5.8125 C0.40117533 7.75324861 0.40117533 7.75324861 1.125 9.8125 C2.115 10.4725 3.105 11.1325 4.125 11.8125 C2.145 12.8025 2.145 12.8025 0.125 13.8125 C0.125 14.4725 0.125 15.1325 0.125 15.8125 C-1.5625 16.625 -1.5625 16.625 -3.875 16.8125 C-7.43144396 14.2259953 -8.70919824 12.65658169 -9.5625 8.3125 C-8.87529269 4.81399007 -8.64121772 4.10094139 -6.1875 1.8125 C-2.875 -0.1875 -2.875 -0.1875 0 0 Z " fill="#882FA3" transform="translate(153.875,27.1875)"/>
<path d="M0 0 C2.875 1.5625 2.875 1.5625 5 4 C5.8125 7.75 5.8125 7.75 6 11 C4.02 11 2.04 11 0 11 C0 10.01 0 9.02 0 8 C1.32 8.33 2.64 8.66 4 9 C4 7.68 4 6.36 4 5 C2.68 4.67 1.36 4.34 0 4 C0 4.99 0 5.98 0 7 C-0.66 7 -1.32 7 -2 7 C-2 5.35 -2 3.7 -2 2 C-3.32 2 -4.64 2 -6 2 C-6 2.66 -6 3.32 -6 4 C-5.34 4 -4.68 4 -4 4 C-4.33 5.32 -4.66 6.64 -5 8 C-5.66 7.67 -6.32 7.34 -7 7 C-7 6.01 -7 5.02 -7 4 C-7.99 4.495 -7.99 4.495 -9 5 C-9.33 5.99 -9.66 6.98 -10 8 C-8.68 8 -7.36 8 -6 8 C-6 8.99 -6 9.98 -6 11 C-7.134375 11.12375 -8.26875 11.2475 -9.4375 11.375 C-11.2009375 11.684375 -11.2009375 11.684375 -13 12 C-13.33 12.66 -13.66 13.32 -14 14 C-15.21019108 7.70700637 -15.21019108 7.70700637 -14.3125 4.6875 C-12.7407665 2.66669979 -11.35453022 1.9565279 -9 1 C-5.89951072 -0.55024464 -3.42105782 -0.28992015 0 0 Z " fill="#F0D3F5" transform="translate(149,196)"/>
<path d="M0 0 C3.29110633 2.10070617 4.8333853 3.75007795 7 7 C7.85378765 11.84979378 8.42345287 16.89963341 5.5625 21.12109375 C1.19389733 24.79389075 -3.07854611 25.87852635 -8.73046875 25.53125 C-13.4844061 24.41845227 -15.4433372 20.83499421 -18 17 C-18.66100598 12.95742659 -18.91928345 8.79827957 -17.01953125 5.08203125 C-12.08295618 -1.06970076 -7.32503515 -1.83125879 0 0 Z M-16 6 C-17.59689041 9.19378082 -17.37348957 12.52521315 -17 16 C-15.3185707 19.86728738 -13.84766221 21.41933877 -10 23 C-5.38513192 23.7099797 -1.99928034 23.62455021 2 21.125 C5.47902736 17.42853343 5.38781166 14.40391772 5.359375 9.484375 C5.16391619 6.69134224 5.16391619 6.69134224 2.625 3.9375 C-1.01316788 1.25218561 -3.30707936 0.60720094 -7.89453125 0.640625 C-11.61593453 1.27581814 -13.40312849 3.33979016 -16 6 Z " fill="#AD8FB5" transform="translate(30,137)"/>
<path d="M0 0 C3.32783116 1.9532922 4.71192872 3.02498951 5.8125 6.75 C5.874375 7.4925 5.93625 8.235 6 9 C-0.27692308 13.06153846 -0.27692308 13.06153846 -3.9375 12.75 C-4.618125 12.5025 -5.29875 12.255 -6 12 C-5.67 10.68 -5.34 9.36 -5 8 C-4.01 8 -3.02 8 -2 8 C-2.66 6.68 -3.32 5.36 -4 4 C-7.34373475 4.55728913 -10.03312999 5.35173889 -13 7 C-10.38404048 0.67809783 -6.73246373 -0.82679379 0 0 Z " fill="#F6EAF8" transform="translate(159,24)"/>
<path d="M0 0 C0.78375 0.04125 1.5675 0.0825 2.375 0.125 C2.20540261 4.53453207 2.04898613 6.49915574 -1.25 9.5625 C-5.01348099 11.30485231 -7.52660255 11.4528718 -11.625 11.125 C-11.295 10.135 -10.965 9.145 -10.625 8.125 C-11.615 8.125 -12.605 8.125 -13.625 8.125 C-13.625 7.135 -13.625 6.145 -13.625 5.125 C-14.945 4.795 -16.265 4.465 -17.625 4.125 C-17.625 3.465 -17.625 2.805 -17.625 2.125 C-16.70976563 2.14820313 -15.79453125 2.17140625 -14.8515625 2.1953125 C-13.06878906 2.22238281 -13.06878906 2.22238281 -11.25 2.25 C-9.47496094 2.28480469 -9.47496094 2.28480469 -7.6640625 2.3203125 C-3.93886208 2.08090373 -3.60028018 0.17144191 0 0 Z " fill="#BA88C8" transform="translate(129.625,24.875)"/>
<path d="M0 0 C2.92945104 1.30197824 4.515817 2.28525367 6.3125 4.9375 C7 7 7 7 7 11 C5.35 11 3.7 11 2 11 C1.71125 10.05125 1.4225 9.1025 1.125 8.125 C0.23174891 4.94788422 0.23174891 4.94788422 -2 3 C-4.93453261 3.36681658 -5.86437246 3.86437246 -8 6 C-8.6425235 8.06874034 -8.6425235 8.06874034 -9 10 C-10.65 10 -12.3 10 -14 10 C-13.78466133 6.23157335 -13.00263823 5.00282667 -10.375 2.1875 C-6.94006524 -0.4237094 -4.29786026 -0.62514331 0 0 Z " fill="#F5E9F8" transform="translate(125,13)"/>
<path d="M0 0 C0.66 0 1.32 0 2 0 C0.43528652 3.84066037 -2.06034127 6.13033315 -5 9 C-6.35555293 10.64864545 -7.69631653 12.31003995 -9 14 C-4.38542302 11.43634612 -0.71543619 9.14630856 1 4 C1.99 4 2.98 4 4 4 C3.875 5.6875 3.875 5.6875 3 8 C1.02043058 9.69088222 -0.97945196 11.35830472 -3 13 C-3.33 13.99 -3.66 14.98 -4 16 C-8.46929132 15.82473367 -10.51906146 15.41954213 -13.9375 12.4375 C-16.71079465 8.71258464 -16.38815254 5.50256945 -16 1 C-15.67 1.66 -15.34 2.32 -15 3 C-14.34 3.33 -13.68 3.66 -13 4 C-13.66 5.32 -14.32 6.64 -15 8 C-14.34 8 -13.68 8 -13 8 C-13 7.34 -13 6.68 -13 6 C-12.01 6 -11.02 6 -10 6 C-10 6.99 -10 7.98 -10 9 C-10.66 9 -11.32 9 -12 9 C-12 9.99 -12 10.98 -12 12 C-11.030625 11.236875 -10.06125 10.47375 -9.0625 9.6875 C-8.24458984 9.04361328 -8.24458984 9.04361328 -7.41015625 8.38671875 C-5.72844923 6.94316909 -5.72844923 6.94316909 -5 4 C-4.01 3.67 -3.02 3.34 -2 3 C-1.34 2.01 -0.68 1.02 0 0 Z " fill="#9D71AC" transform="translate(189,53)"/>
<path d="M0 0 C0.88429688 -0.01417969 1.76859375 -0.02835938 2.6796875 -0.04296875 C5.125 0.1875 5.125 0.1875 8.125 2.1875 C8.125 3.5075 8.125 4.8275 8.125 6.1875 C4.4437559 8.64166273 1.40238037 8.78134154 -2.875 8.1875 C-5.375 6.6875 -5.375 6.6875 -6.875 5.1875 C-5.75821672 0.24174546 -5.07415073 0.03676921 0 0 Z " fill="#F9F1FA" transform="translate(87.875,27.8125)"/>
<path d="M0 0 C0.33 0 0.66 0 1 0 C2.40637225 16.39219734 3.17534587 33.12932778 -5 48 C-6.32 47.67 -7.64 47.34 -9 47 C-9.33 45.35 -9.66 43.7 -10 42 C-9.34 42.33 -8.68 42.66 -8 43 C-8 43.66 -8 44.32 -8 45 C-7.34 45 -6.68 45 -6 45 C-5.89042969 44.40574219 -5.78085938 43.81148437 -5.66796875 43.19921875 C-5.50941406 42.37035156 -5.35085937 41.54148438 -5.1875 40.6875 C-5.03667969 39.88699219 -4.88585937 39.08648437 -4.73046875 38.26171875 C-4.30726254 36.37200119 -3.84435984 34.48861092 -3.28051758 32.63598633 C-1.12362109 25.4660083 -0.47252487 18.77880299 -0.3125 11.3125 C-0.27833984 10.21744141 -0.24417969 9.12238281 -0.20898438 7.99414062 C-0.12753339 5.32952977 -0.05805779 2.66520538 0 0 Z " fill="#8F7267" transform="translate(122,79)"/>
<path d="M0 0 C1.11375 0.1546875 1.11375 0.1546875 2.25 0.3125 C1.610625 0.76625 0.97125 1.22 0.3125 1.6875 C-1.84702406 3.15171726 -1.84702406 3.15171726 -2.75 5.3125 C-3.21588282 11.19415736 -3.21588282 11.19415736 -0.75 16.3125 C5.13489457 16.8665567 5.13489457 16.8665567 10.25 14.3125 C11.4688121 10.75577821 11.4688121 10.75577821 12.25 7.3125 C12.58 7.3125 12.91 7.3125 13.25 7.3125 C13.65877691 11.48202449 13.65933517 13.67120823 11.375 17.25 C7.57710006 19.75661396 5.11874845 20.10319954 0.6328125 19.85546875 C-1.94434072 19.2682158 -3.06014404 18.70513551 -4.875 16.8125 C-7.29253769 12.29976299 -7.47214458 10.36751205 -6.75 5.3125 C-4.808159 1.86033822 -4.00118449 0.45468006 0 0 Z " fill="#DBB3E3" transform="translate(195.75,148.6875)"/>
<path d="M0 0 C2.9375 2.125 2.9375 2.125 5 5 C5.51605446 9.20215772 5.45273312 12.45716327 3 16 C0.30460046 17.34769977 -1.93011831 17.28022191 -4.9375 17.375 C-6.52884766 17.44847656 -6.52884766 17.44847656 -8.15234375 17.5234375 C-11 17 -11 17 -12.84765625 14.6953125 C-14.36478805 11.14676694 -14.54635594 8.82449156 -14 5 C-9.45613306 -0.5004705 -6.96669891 -1.653115 0 0 Z M-10.375 2.5 C-12.80664499 6.24099229 -12.49174842 8.57426418 -12 13 C-11.16666667 15.16666667 -11.16666667 15.16666667 -9 16 C-3.45114109 16.61884685 -3.45114109 16.61884685 1.5 14.5 C3.79122453 10.68129245 3.63183067 8.42281469 3 4 C0.34660598 1.50268798 -1.48121115 1.07411269 -5.0625 0.5625 C-8.04456021 0.80464914 -8.04456021 0.80464914 -10.375 2.5 Z " fill="#62392A" transform="translate(119,134)"/>
<path d="M0 0 C3.63 0 7.26 0 11 0 C11.66 1.32 12.32 2.64 13 4 C12.01 4.33 11.02 4.66 10 5 C9.40929986 6.94603274 9.40929986 6.94603274 9 9 C8.34 9.66 7.68 10.32 7 11 C5.29115995 9.37660195 3.62553283 7.70680947 2 6 C2 5.34 2 4.68 2 4 C0.68 4 -0.64 4 -2 4 C-2 3.34 -2 2.68 -2 2 C-1.34 2 -0.68 2 0 2 C0 1.34 0 0.68 0 0 Z " fill="#A868BC" transform="translate(172,181)"/>
<path d="M0 0 C0.66 0.33 1.32 0.66 2 1 C1.51273437 1.55429688 1.02546875 2.10859375 0.5234375 2.6796875 C-1.26522149 5.40395273 -1.4038925 6.89867054 -1.375 10.125 C-1.38273437 10.99382812 -1.39046875 11.86265625 -1.3984375 12.7578125 C-1.26695313 13.49773437 -1.13546875 14.23765625 -1 15 C-0.01 15.66 0.98 16.32 2 17 C2.66 16.34 3.32 15.68 4 15 C4.99 15 5.98 15 7 15 C7.33 15.66 7.66 16.32 8 17 C9.97888961 17.72693904 11.97954558 18.39816251 14 19 C13.67 19.66 13.34 20.32 13 21 C8.48891217 21.99396851 6.05694639 22.37890531 1.6875 20.8125 C-1.00413753 18.99720957 -2.30880312 17.73118576 -4 15 C-4.8926333 10.05432899 -4.72313461 6.12989783 -2 1.875 C-1.34 1.25625 -0.68 0.6375 0 0 Z " fill="#9B61AB" transform="translate(68,194)"/>
<path d="M0 0 C0.66 0.99 1.32 1.98 2 3 C2.66 3 3.32 3 4 3 C4 4.32 4 5.64 4 7 C4.66 7 5.32 7 6 7 C6.33 6.34 6.66 5.68 7 5 C7 5.66 7 6.32 7 7 C7.99 7 8.98 7 10 7 C10 8.65 10 10.3 10 12 C9.01 11.34 8.02 10.68 7 10 C7.33 9.67 7.66 9.34 8 9 C7.01 8.67 6.02 8.34 5 8 C4.67 9.32 4.34 10.64 4 12 C3.01 12 2.02 12 1 12 C0.67 13.32 0.34 14.64 0 16 C-1.65 15.67 -3.3 15.34 -5 15 C-5 13.68 -5 12.36 -5 11 C-5.66 11 -6.32 11 -7 11 C-6.67 9.35 -6.34 7.7 -6 6 C-3.03 6.495 -3.03 6.495 0 7 C0 4.69 0 2.38 0 0 Z " fill="#B897C3" transform="translate(111,204)"/>
<path d="M0 0 C0 2.64 0 5.28 0 8 C-0.99 8 -1.98 8 -3 8 C-3.2475 8.61875 -3.495 9.2375 -3.75 9.875 C-5.20628639 12.35068687 -6.37812506 12.95125002 -9 14 C-10 13 -10 13 -10.4375 10.375 C-9.64874976 4.29035533 -6.21927207 0 0 0 Z " fill="#F8EFFA" transform="translate(44,171)"/>
<path d="M0 0 C3.77987169 0.69426215 5.42979399 1.77935365 8.0625 4.5625 C8.875 7.3125 8.875 7.3125 9.0625 9.5625 C6.0925 9.2325 3.1225 8.9025 0.0625 8.5625 C0.0625 7.9025 0.0625 7.2425 0.0625 6.5625 C-2.2475 6.2325 -4.5575 5.9025 -6.9375 5.5625 C-3.79412211 0.72653402 -3.79412211 0.72653402 0 0 Z " fill="#FAF7FC" transform="translate(206.9375,113.4375)"/>
<path d="M0 0 C2.31 0 4.62 0 7 0 C7.33 3.63 7.66 7.26 8 11 C5.03 11 2.06 11 -1 11 C-0.67 7.37 -0.34 3.74 0 0 Z " fill="#862FA1" transform="translate(25,69)"/>
<path d="M0 0 C3 1 3 1 5 4 C5.125 6.6875 5.125 6.6875 5 9 C5.66 9 6.32 9 7 9 C7 9.66 7 10.32 7 11 C5.68 11 4.36 11 3 11 C3 10.34 3 9.68 3 9 C1.68 9.33 0.36 9.66 -1 10 C-1 10.66 -1 11.32 -1 12 C-3.31 12 -5.62 12 -8 12 C-8.33 11.01 -8.66 10.02 -9 9 C-7.02 9 -5.04 9 -3 9 C-2.814375 7.329375 -2.814375 7.329375 -2.625 5.625 C-2 2 -2 2 0 0 Z " fill="#EBD4F2" transform="translate(54,38)"/>
<path d="M0 0 C2.31 0.33 4.62 0.66 7 1 C7 4.63 7 8.26 7 12 C4.36 11.67 1.72 11.34 -1 11 C-1.0270043 9.54176788 -1.04639787 8.08339325 -1.0625 6.625 C-1.07410156 5.81289063 -1.08570313 5.00078125 -1.09765625 4.1640625 C-1 2 -1 2 0 0 Z " fill="#872CA2" transform="translate(44,36)"/>
<path d="M0 0 C1.9375 0.8125 1.9375 0.8125 3.9375 2.8125 C3.5625 6.4375 3.5625 6.4375 2.9375 9.8125 C-0.4375 9.9375 -0.4375 9.9375 -4.0625 9.8125 C-4.7225 9.1525 -5.3825 8.4925 -6.0625 7.8125 C-5.84593634 4.99717241 -5.37377943 3.25718489 -3.75 0.9375 C-2.0625 -0.1875 -2.0625 -0.1875 0 0 Z " fill="#AF81BD" transform="translate(122.0625,15.1875)"/>
<path d="M0 0 C1.98 0.66 3.96 1.32 6 2 C6 1.34 6 0.68 6 0 C8.31 0 10.62 0 13 0 C13 1.32 13 2.64 13 4 C11.33388095 4.042721 9.66617115 4.04063832 8 4 C7.67 3.67 7.34 3.34 7 3 C6.01 3.33 5.02 3.66 4 4 C6.64 4.33 9.28 4.66 12 5 C12 5.33 12 5.66 12 6 C8.7 6.33 5.4 6.66 2 7 C2 7.66 2 8.32 2 9 C0.68 9.33 -0.64 9.66 -2 10 C-2.25 3.375 -2.25 3.375 0 0 Z " fill="#BE9DC8" transform="translate(79,19)"/>
<path d="M0 0 C5.19020114 0.15291754 8.03018264 0.72054639 11.81640625 4.62890625 C10.81640625 5.62890625 10.81640625 5.62890625 7 5.7265625 C5.41793943 5.71988714 3.83589466 5.707925 2.25390625 5.69140625 C1.44759766 5.68689453 0.64128906 5.68238281 -0.18945312 5.67773438 C-2.18753131 5.66591143 -4.18557158 5.64797539 -6.18359375 5.62890625 C-2.81654823 0.8112062 -2.81654823 0.8112062 0 0 Z " fill="#A577B1" transform="translate(50.18359375,30.37109375)"/>
<path d="M0 0 C0.33 0.66 0.66 1.32 1 2 C1.7425 1.896875 2.485 1.79375 3.25 1.6875 C6 2 6 2 8.3125 4.375 C10 7 10 7 10 9 C8.68 8.67 7.36 8.34 6 8 C6 9.65 6 11.3 6 13 C3.53199953 11.84826645 1.95216435 10.95216435 0 9 C-0.1953125 6.8359375 -0.1953125 6.8359375 -0.125 4.375 C-0.10695312 3.55773437 -0.08890625 2.74046875 -0.0703125 1.8984375 C-0.04710937 1.27195313 -0.02390625 0.64546875 0 0 Z " fill="#F4E7F6" transform="translate(168,183)"/>
<path d="M0 0 C3.16115776 1.36983503 3.9927092 1.9890638 6 5 C6.07905064 7.33199388 6.08798769 9.66832622 6 12 C3.525 11.01 3.525 11.01 1 10 C1 9.34 1 8.68 1 8 C-0.32 8 -1.64 8 -3 8 C-2.25 2.25 -2.25 2.25 0 0 Z " fill="#FAF1FA" transform="translate(49,172)"/>
<path d="M0 0 C1.98 0 3.96 0 6 0 C6 0.66 6 1.32 6 2 C7.32 2 8.64 2 10 2 C10 3.98 10 5.96 10 8 C8.68 8 7.36 8 6 8 C5.67 7.01 5.34 6.02 5 5 C4.67 5.99 4.34 6.98 4 8 C2.35 8 0.7 8 -1 8 C-0.67 5.36 -0.34 2.72 0 0 Z " fill="#934BA7" transform="translate(201,120)"/>
<path d="M0 0 C1.875 0.25 1.875 0.25 4 1 C5.87380446 3.49840595 6.05001932 4.63319166 5.625 7.75 C5.41875 8.4925 5.2125 9.235 5 10 C2.625 10.625 2.625 10.625 0 11 C-2 9 -2 9 -2.125 6.375 C-2.08375 5.59125 -2.0425 4.8075 -2 4 C-1.34 4 -0.68 4 0 4 C0 2.68 0 1.36 0 0 Z " fill="#813997" transform="translate(204,87)"/>
<path d="M0 0 C4.5862069 1.44827586 4.5862069 1.44827586 6.3125 3.75 C7.17450101 6.57109421 7.13329111 9.06759551 7 12 C5.02 12 3.04 12 1 12 C0.855625 10.9275 0.71125 9.855 0.5625 8.75 C0.10012053 5.20640191 0.10012053 5.20640191 -0.625 2.625 C-0.74875 2.08875 -0.8725 1.5525 -1 1 C-0.67 0.67 -0.34 0.34 0 0 Z " fill="#F9F3FB" transform="translate(32,64)"/>
<path d="M0 0 C2.1875 0.3125 2.1875 0.3125 4 1 C4 3.22998296 3.72577888 4.88864324 3 7 C-0.22791555 9.1519437 -1.28400809 9.20086443 -5 9 C-5 6.36 -5 3.72 -5 1 C-4.34 1.66 -3.68 2.32 -3 3 C-2.5875 2.484375 -2.175 1.96875 -1.75 1.4375 C-1.1725 0.963125 -0.595 0.48875 0 0 Z " fill="#E9D8ED" transform="translate(116,212)"/>
<path d="M0 0 C3.6578218 2.03993908 5.66946174 3.50419262 8 7 C8.07905064 9.33199388 8.08798769 11.66832622 8 14 C6.35 14 4.7 14 3 14 C3.99 13.67 4.98 13.34 6 13 C4.94472799 8.1563543 4.94472799 8.1563543 2.3125 4.0625 C-0.98402574 2.54788006 -3.41070732 2.62217972 -7 3 C-9.87146994 4.36997157 -9.87146994 4.36997157 -12 6 C-11.05275873 3.63189682 -10.34708866 2.24792047 -8.25 0.75 C-5.25035738 -0.24988087 -3.15310017 -0.37837202 0 0 Z " fill="#AB8CB5" transform="translate(149,194)"/>
<path d="M0 0 C0.33 0.66 0.66 1.32 1 2 C0.67 2.66 0.34 3.32 0 4 C-0.2352732 6.10854036 -0.2352732 6.10854036 -0.25 8.4375 C-0.27578125 9.21996094 -0.3015625 10.00242188 -0.328125 10.80859375 C-0.16580031 13.05964606 -0.16580031 13.05964606 1.28515625 14.7421875 C3.95666773 16.70170161 6.76908402 16.69519661 10 17 C10 17.66 10 18.32 10 19 C10.99 19.33 11.98 19.66 13 20 C5.0470297 20.62376238 5.0470297 20.62376238 1.0625 18.25 C-2.02255654 14.88448377 -2.89459487 13.15945644 -3.3125 8.5625 C-2.98447096 4.82296894 -2.18092532 2.99877231 0 0 Z " fill="#A484A9" transform="translate(169,179)"/>
<path d="M0 0 C-1.20381448 2.49361571 -2.45428722 4.68143083 -4 7 C-4.24107326 9.28648848 -4.24107326 9.28648848 -4.125 11.6875 C-4.10695313 12.49574219 -4.08890625 13.30398437 -4.0703125 14.13671875 C-4.04710937 14.75160156 -4.02390625 15.36648437 -4 16 C-4.99 15.67 -5.98 15.34 -7 15 C-8.60355891 11.79288219 -8.48564284 8.47933157 -8 5 C-5.51902246 0.74689565 -5.05250747 0 0 0 Z " fill="#F4E7F6" transform="translate(21,140)"/>
<path d="M0 0 C1 2 1 2 1 7 C6.445 6.505 6.445 6.505 12 6 C11.67 7.32 11.34 8.64 11 10 C9.68 9.67 8.36 9.34 7 9 C7 9.66 7 10.32 7 11 C3.625 11.1875 3.625 11.1875 0 11 C-2 8 -2 8 -1.6875 4.375 C-1 1 -1 1 0 0 Z " fill="#B97EC8" transform="translate(18,144)"/>
<path d="M0 0 C3.0625 1.5 3.0625 1.5 5 3 C4.67 4.65 4.34 6.3 4 8 C3.67 8 3.34 8 3 8 C3 6.35 3 4.7 3 3 C-3.71314333 1.77659675 -3.71314333 1.77659675 -10 4 C-13.19815107 6.36900079 -13.91868732 9.25699458 -15 13 C-14.01 13.33 -13.02 13.66 -12 14 C-12.99 14 -13.98 14 -15 14 C-15.33 14.99 -15.66 15.98 -16 17 C-16.62653784 8.03702815 -16.62653784 8.03702815 -14.1875 4 C-9.49980561 -0.28589201 -6.12762846 -0.74046649 0 0 Z " fill="#9B6FA7" transform="translate(22,98)"/>
<path d="M0 0 C0 3.75195483 -1.15570758 5.32525655 -3.0625 8.54296875 C-3.69414063 9.61611328 -4.32578125 10.68925781 -4.9765625 11.79492188 C-5.64429687 12.91447266 -6.31203125 14.03402344 -7 15.1875 C-8.00160156 16.88422852 -8.00160156 16.88422852 -9.0234375 18.61523438 C-10.67650941 21.41364897 -12.33556223 24.20833566 -14 27 C-15 24 -15 24 -14.16723633 21.88696289 C-13.72661865 21.0902417 -13.28600098 20.29352051 -12.83203125 19.47265625 C-12.35056641 18.59802734 -11.86910156 17.72339844 -11.37304688 16.82226562 C-10.60057617 15.45618164 -10.60057617 15.45618164 -9.8125 14.0625 C-9.31685547 13.15564453 -8.82121094 12.24878906 -8.31054688 11.31445312 C-5.88553744 6.96096855 -3.66205623 3.43253402 0 0 Z " fill="#6F4338" transform="translate(102,69)"/>
<path d="M0 0 C2.375 -0.125 2.375 -0.125 5 0 C7 2 7 2 7.1953125 4.3828125 C7.17210937 5.28773437 7.14890625 6.19265625 7.125 7.125 C7.10695312 8.03507812 7.08890625 8.94515625 7.0703125 9.8828125 C7.04710937 10.58148438 7.02390625 11.28015625 7 12 C6.67 11.01 6.34 10.02 6 9 C3.98491642 8.26676204 3.98491642 8.26676204 2 8 C1.67 9.32 1.34 10.64 1 12 C1.01160156 11.30132812 1.02320313 10.60265625 1.03515625 9.8828125 C1.04417969 8.97273438 1.05320313 8.06265625 1.0625 7.125 C1.07410156 6.22007813 1.08570313 5.31515625 1.09765625 4.3828125 C1.16249257 1.9831415 1.16249257 1.9831415 0 0 Z " fill="#D0B3D8" transform="translate(202,79)"/>
<path d="M0 0 C0.33 0 0.66 0 1 0 C1 1.65 1 3.3 1 5 C2.98 5 4.96 5 7 5 C6.625 7.9375 6.625 7.9375 6 11 C5.01 11.495 5.01 11.495 4 12 C4.66 10.02 5.32 8.04 6 6 C4.515 6.7734375 4.515 6.7734375 3 7.5625 C-1.31493291 9.45083465 -4.44341772 8.87934044 -9 8 C-9.33 6.68 -9.66 5.36 -10 4 C-5.545 4.99 -5.545 4.99 -1 6 C-0.67 4.02 -0.34 2.04 0 0 Z " fill="#9556A8" transform="translate(126,19)"/>
<path d="M0 0 C1.32 0.33 2.64 0.66 4 1 C3.67 2.32 3.34 3.64 3 5 C4.32 5 5.64 5 7 5 C7 5.99 7 6.98 7 8 C5.865625 8.12375 4.73125 8.2475 3.5625 8.375 C1.7990625 8.684375 1.7990625 8.684375 0 9 C-0.33 9.66 -0.66 10.32 -1 11 C-2.23076923 4.6 -2.23076923 4.6 -1.0625 1.5625 C-0.711875 1.046875 -0.36125 0.53125 0 0 Z " fill="#BF9BC8" transform="translate(136,199)"/>
<path d="M0 0 C6.35227273 0.48863636 6.35227273 0.48863636 9.375 2.875 C12.59823682 7.090002 12.08297822 10.93832855 12 16 C11.01 15.34 10.02 14.68 9 14 C9 11.66666667 9 9.33333333 9 7 C7.64114884 4.59916562 7.64114884 4.59916562 6 3 C2.88667752 3.66868314 2.88667752 3.66868314 1.8125 6.0625 C1.544375 6.701875 1.27625 7.34125 1 8 C0.67 8 0.34 8 0 8 C0 5.36 0 2.72 0 0 Z " fill="#9D6CAA" transform="translate(45,170)"/>
<path d="M0 0 C-0.59646305 3.34019306 -1.68294159 5.50470633 -4 8 C-4.99 8 -5.98 8 -7 8 C-7.0825 8.5775 -7.165 9.155 -7.25 9.75 C-8.21797787 12.6539336 -9.68694284 14.03740604 -12 16 C-12.66 16 -13.32 16 -14 16 C-14 15.01 -14 14.02 -14 13 C-13.01 13 -12.02 13 -11 13 C-10.91621094 12.43796875 -10.83242187 11.8759375 -10.74609375 11.296875 C-9.77104948 8.29516805 -8.17188491 6.58443682 -6.0625 4.25 C-5.35222656 3.45078125 -4.64195312 2.6515625 -3.91015625 1.828125 C-2 0 -2 0 0 0 Z " fill="#F4E4F8" transform="translate(191,49)"/>
<path d="M0 0 C1.5625 1.0625 1.5625 1.0625 3 3 C2.76811536 6.30435606 2.48929359 9.02141281 1 12 C0.34 12 -0.32 12 -1 12 C-1 11.01 -1 10.02 -1 9 C-2.98 9.99 -2.98 9.99 -5 11 C-4.42415568 8.61435923 -3.77772405 6.33317216 -3 4 C-2.34 3.67 -1.68 3.34 -1 3 C-0.67 2.01 -0.34 1.02 0 0 Z " fill="#F5E8F7" transform="translate(185,182)"/>
<path d="M0 0 C0.99 0 1.98 0 3 0 C3.375 2.6875 3.375 2.6875 3 6 C0.38528796 9.08401933 -1.2537212 10.61401324 -5.19140625 11.484375 C-9.3792592 11.73947264 -12.21201917 11.29342954 -15.5625 8.6875 C-18 6 -18 6 -18 3 C-17.34 3 -16.68 3 -16 3 C-14.98133771 4.65532623 -13.98189187 6.32260138 -13 8 C-10.17998673 9.41000664 -8.12992745 9.24548451 -5 9 C-2.07097697 8.04331967 -2.07097697 8.04331967 0 6 C0.41746608 2.87364791 0.41746608 2.87364791 0 0 Z " fill="#90609F" transform="translate(214,124)"/>
<path d="M0 0 C1.32 0 2.64 0 4 0 C2.61867539 3.1268791 1.02096237 5.19920392 -1.4375 7.5625 C-2.03433594 8.14128906 -2.63117188 8.72007813 -3.24609375 9.31640625 C-4.11427734 10.14978516 -4.11427734 10.14978516 -5 11 C-5.79083984 11.84884766 -5.79083984 11.84884766 -6.59765625 12.71484375 C-8 14 -8 14 -10 14 C-9.44359561 10.46340225 -8.3768247 9.15316318 -5.5625 7 C-2.82247636 4.89492965 -1.36828322 3.19036892 0 0 Z " fill="#F1DBF4" transform="translate(184,47)"/>
<path d="M0 0 C0.33 1.32 0.66 2.64 1 4 C5.29 4 9.58 4 14 4 C14.33 2.68 14.66 1.36 15 0 C15.1875 2.375 15.1875 2.375 15 5 C10.97256339 7.68495774 7.73132484 7.57173628 3 7 C-0.0625 5.5 -0.0625 5.5 -2 4 C-1.34 3.67 -0.68 3.34 0 3 C0 2.01 0 1.02 0 0 Z " fill="#DFBEE7" transform="translate(17,153)"/>
<path d="M0 0 C0.33 0.99 0.66 1.98 1 3 C4.00847418 4.22520264 4.00847418 4.22520264 7 5 C6.67 6.98 6.34 8.96 6 11 C9.3 10.67 12.6 10.34 16 10 C16 10.66 16 11.32 16 12 C12.37 12 8.74 12 5 12 C5 10.68 5 9.36 5 8 C2.03 7.505 2.03 7.505 -1 7 C-0.67 4.69 -0.34 2.38 0 0 Z " fill="#C9A5D4" transform="translate(18,69)"/>
<path d="M0 0 C-0.33 1.32 -0.66 2.64 -1 4 C-1.99 4 -2.98 4 -4 4 C-4.10570312 4.59296875 -4.21140625 5.1859375 -4.3203125 5.796875 C-5.09407599 8.30493596 -6.01846791 9.42117734 -7.875 11.25 C-8.38804687 11.77078125 -8.90109375 12.2915625 -9.4296875 12.828125 C-11 14 -11 14 -14 14 C-12.71480435 11.13302508 -11.42870746 9.02392288 -9 7 C-8.34 7 -7.68 7 -7 7 C-6.731875 6.401875 -6.46375 5.80375 -6.1875 5.1875 C-3.37142857 0 -3.37142857 0 0 0 Z " fill="#F3DFF7" transform="translate(194,53)"/>
<path d="M0 0 C-1.32 0.33 -2.64 0.66 -4 1 C-4 1.66 -4 2.32 -4 3 C-5.64488294 4.68816933 -7.31337542 6.35353315 -9 8 C-9.99 9.485 -9.99 9.485 -11 11 C-11.66 11 -12.32 11 -13 11 C-13.8125 9.3125 -13.8125 9.3125 -14 7 C-9.66799362 1.94599256 -6.68852028 -0.29726757 0 0 Z " fill="#CCAAD7" transform="translate(187,45)"/>
<path d="M0 0 C2.81969628 1.87979752 4.17673862 3.22169694 6 6 C6 6.66 6 7.32 6 8 C5.34 8 4.68 8 4 8 C2.66666667 6.66666667 1.33333333 5.33333333 0 4 C-0.99 3.67 -1.98 3.34 -3 3 C-3 3.66 -3 4.32 -3 5 C-4.65 5 -6.3 5 -8 5 C-8.33 3.68 -8.66 2.36 -9 1 C-5.98131566 -0.50934217 -3.32702771 -0.17510672 0 0 Z " fill="#BC8AC8" transform="translate(202,146)"/>
<path d="M0 0 C4.15576993 0.24445705 6.52910749 0.65935436 9.9375 3.125 C12.53004358 6.73884863 12.55529406 8.63697523 12 13 C11.1875 15.375 11.1875 15.375 10 17 C9.01 17.33 8.02 17.66 7 18 C7 15 7 15 9 13 C9.24212873 11.01871492 9.24212873 11.01871492 9.125 8.875 C9.08375 7.59625 9.0425 6.3175 9 5 C4.545 3.02 4.545 3.02 0 1 C0 0.67 0 0.34 0 0 Z " fill="#6C3623" transform="translate(112,133)"/>
<path d="M0 0 C4.95 0 9.9 0 15 0 C11 4 11 4 8.96484375 4.4609375 C5.17426609 4.30025791 3.21436529 4.14291019 0 2 C0 1.34 0 0.68 0 0 Z " fill="#9249A7" transform="translate(21,83)"/>
<path d="M0 0 C0.66 0.99 1.32 1.98 2 3 C1.34 4.32 0.68 5.64 0 7 C3.3 7.66 6.6 8.32 10 9 C9.67 9.66 9.34 10.32 9 11 C3.28341664 11.45732667 0.51350747 10.52273754 -4 7 C-3.43628586 3.73045798 -2.50037734 2.17424117 0 0 Z " fill="#883D9E" transform="translate(39,182)"/>
<path d="M0 0 C1.98 0 3.96 0 6 0 C6 2.64 6 5.28 6 8 C4.02 7.34 2.04 6.68 0 6 C0 4.02 0 2.04 0 0 Z M-3 6 C0 7 0 7 0 7 Z " fill="#FAF3F8" transform="translate(19,101)"/>
<path d="M0 0 C0.66 0.66 1.32 1.32 2 2 C1.34 3.32 0.68 4.64 0 6 C0.66 6 1.32 6 2 6 C2 8.64 2 11.28 2 14 C1.67 13.01 1.34 12.02 1 11 C0.01 11.33 -0.98 11.66 -2 12 C-3.35384615 5.72307692 -3.35384615 5.72307692 -1.5625 2.0625 C-1.046875 1.381875 -0.53125 0.70125 0 0 Z " fill="#B993C4" transform="translate(197,116)"/>
<path d="M0 0 C0.66 0 1.32 0 2 0 C1.71640113 1.4391134 1.42278601 2.87625518 1.125 4.3125 C0.96257812 5.11300781 0.80015625 5.91351563 0.6328125 6.73828125 C0 9 0 9 -2 12 C-3.32 11.67 -4.64 11.34 -6 11 C-6.33 9.35 -6.66 7.7 -7 6 C-6.01 6.495 -6.01 6.495 -5 7 C-5 7.66 -5 8.32 -5 9 C-4.34 9 -3.68 9 -3 9 C-2.67 7.02 -2.34 5.04 -2 3 C-1.34 3 -0.68 3 0 3 C0 2.01 0 1.02 0 0 Z " fill="#805044" transform="translate(119,115)"/>
<path d="M0 0 C0.33 1.32 0.66 2.64 1 4 C1.66 4 2.32 4 3 4 C3.33 3.34 3.66 2.68 4 2 C4.66 2 5.32 2 6 2 C6 3.65 6 5.3 6 7 C2.37 7 -1.26 7 -5 7 C-4.67 5.35 -4.34 3.7 -4 2 C-2.02 2.495 -2.02 2.495 0 3 C0 2.01 0 1.02 0 0 Z " fill="#EED2F3" transform="translate(23,105)"/>
<path d="M0 0 C0.99 0.33 1.98 0.66 3 1 C2.67 2.65 2.34 4.3 2 6 C2.66 6 3.32 6 4 6 C4 5.01 4 4.02 4 3 C5.32 3.33 6.64 3.66 8 4 C8 5.32 8 6.64 8 8 C5.36 7.67 2.72 7.34 0 7 C0 5.68 0 4.36 0 3 C-0.66 3 -1.32 3 -2 3 C-2 2.34 -2 1.68 -2 1 C-1.34 0.67 -0.68 0.34 0 0 Z " fill="#955FA6" transform="translate(145,197)"/>
<path d="M0 0 C0.703125 1.61328125 0.703125 1.61328125 1 4 C-0.328125 6.98046875 -0.328125 6.98046875 -2.25 10.1875 C-2.87390625 11.25355469 -3.4978125 12.31960937 -4.140625 13.41796875 C-6 16 -6 16 -9 17 C-7.51481201 12.95698825 -5.57122002 9.38853744 -3.375 5.6875 C-2.74335937 4.61886719 -2.11171875 3.55023438 -1.4609375 2.44921875 C-0.97882813 1.64097656 -0.49671875 0.83273438 0 0 Z " fill="#785245" transform="translate(67,124)"/>
<path d="M0 0 C-1.32 0.33 -2.64 0.66 -4 1 C-4 2.98 -4 4.96 -4 7 C-5.32 7 -6.64 7 -8 7 C-8 5.02 -8 3.04 -8 1 C-8.66 0.67 -9.32 0.34 -10 0 C-6.42355152 -1.2380014 -3.66305234 -0.74926071 0 0 Z " fill="#D6BCDD" transform="translate(23,100)"/>
<path d="M0 0 C0.99 -0.33 1.98 -0.66 3 -1 C3 -0.34 3 0.32 3 1 C4.32 1.66 5.64 2.32 7 3 C6.67 3.99 6.34 4.98 6 6 C5.195625 5.525625 4.39125 5.05125 3.5625 4.5625 C-0.66939929 2.70640382 -4.43172078 2.29440022 -9 2 C-6.95082136 -2.09835729 -3.75958773 -0.75191755 0 0 Z " fill="#E1C2E7" transform="translate(91,22)"/>
<path d="M0 0 C1.32 0.66 2.64 1.32 4 2 C4 2.66 4 3.32 4 4 C4.78375 3.79375 5.5675 3.5875 6.375 3.375 C7.674375 3.189375 7.674375 3.189375 9 3 C9.66 3.66 10.32 4.32 11 5 C8 7 8 7 5 7 C5 6.34 5 5.68 5 5 C2.03 4.505 2.03 4.505 -1 4 C-0.67 2.68 -0.34 1.36 0 0 Z " fill="#89489E" transform="translate(174,191)"/>
<path d="M0 0 C3 1 3 1 4 3 C4.06996014 4.70702735 4.08440154 6.41668003 4.0625 8.125 C4.05347656 9.03507812 4.04445313 9.94515625 4.03515625 10.8828125 C4.02355469 11.58148438 4.01195312 12.28015625 4 13 C3.67 12.34 3.34 11.68 3 11 C2.01 11 1.02 11 0 11 C0 10.34 0 9.68 0 9 C0.66 9 1.32 9 2 9 C2.33 7.68 2.66 6.36 3 5 C2.34 5 1.68 5 1 5 C0.67 5.99 0.34 6.98 0 8 C-0.98120464 4.94736336 -0.98120464 3.05263664 0 0 Z " fill="#8F529E" transform="translate(26,102)"/>
<path d="M0 0 C4.75118505 4.31925913 8.91712305 9.3512503 12 15 C11.67 15.99 11.34 16.98 11 18 C9.34648668 15.75530315 7.70214519 13.50479175 6.0625 11.25 C5.59392578 10.61578125 5.12535156 9.9815625 4.64257812 9.328125 C3.9706543 8.4 3.9706543 8.4 3.28515625 7.453125 C2.87144775 6.88754883 2.45773926 6.32197266 2.03149414 5.73925781 C0.90789893 3.84470343 0.4304947 2.15041371 0 0 Z " fill="#64392B" transform="translate(125,64)"/>
<path d="M0 0 C1.051875 -0.02126953 1.051875 -0.02126953 2.125 -0.04296875 C4 0.1875 4 0.1875 6 2.1875 C5.39671875 2.23648437 4.7934375 2.28546875 4.171875 2.3359375 C2.97304687 2.44808594 2.97304687 2.44808594 1.75 2.5625 C0.56664063 2.66691406 0.56664063 2.66691406 -0.640625 2.7734375 C-3.12085981 3.2087105 -4.85982375 3.87119691 -7 5.1875 C-7.33 5.8475 -7.66 6.5075 -8 7.1875 C-8.33 5.8675 -8.66 4.5475 -9 3.1875 C-8.01 3.1875 -7.02 3.1875 -6 3.1875 C-6 2.5275 -6 1.8675 -6 1.1875 C-3.77109005 0.07304502 -2.46944894 0.02269714 0 0 Z " fill="#8C459E" transform="translate(87,24.8125)"/>
<path d="M0 0 C1.65 0 3.3 0 5 0 C4.3125 2.4375 4.3125 2.4375 3 5 C0.625 6 0.625 6 -2 6 C-4.3125 4.5625 -4.3125 4.5625 -6 3 C-4.02 2.34 -2.04 1.68 0 1 C0 0.67 0 0.34 0 0 Z " fill="#C18DD1" transform="translate(127,25)"/>
<path d="M0 0 C2.97 0.495 2.97 0.495 6 1 C6 1.99 6 2.98 6 4 C1.71 4 -2.58 4 -7 4 C-7 3.34 -7 2.68 -7 2 C-4.69 2 -2.38 2 0 2 C0 1.34 0 0.68 0 0 Z " fill="#803097" transform="translate(25,153)"/>
<path d="M0 0 C1 3 1 3 0.22729492 4.79345703 C-0.18415771 5.44169434 -0.59561035 6.08993164 -1.01953125 6.7578125 C-1.46490234 7.46550781 -1.91027344 8.17320313 -2.36914062 8.90234375 C-2.84544922 9.63582031 -3.32175781 10.36929688 -3.8125 11.125 C-4.27720703 11.86621094 -4.74191406 12.60742188 -5.22070312 13.37109375 C-8.71669601 18.858348 -8.71669601 18.858348 -11 20 C-9.36047417 15.3606824 -6.93128948 11.36144142 -4.375 7.1875 C-3.95476562 6.49462891 -3.53453125 5.80175781 -3.1015625 5.08789062 C-2.0710533 3.38989252 -1.03598319 1.69466386 0 0 Z " fill="#DD6A4C" transform="translate(112,54)"/>
<path d="M0 0 C4.29 0 8.58 0 13 0 C13.33 0.66 13.66 1.32 14 2 C11.69 2.66 9.38 3.32 7 4 C6.67 6.31 6.34 8.62 6 11 C5.67 11 5.34 11 5 11 C5 7.7 5 4.4 5 1 C3.35 1 1.7 1 0 1 C0 0.67 0 0.34 0 0 Z " fill="#823D97" transform="translate(46,36)"/>
<path d="M0 0 C0.66 0.33 1.32 0.66 2 1 C2.49230769 7.4 2.49230769 7.4 0 10.4375 C-0.99 11.2109375 -0.99 11.2109375 -2 12 C-1.67 10.35 -1.34 8.7 -1 7 C-2.32 6.67 -3.64 6.34 -5 6 C-3.35 5.34 -1.7 4.68 0 4 C0 2.68 0 1.36 0 0 Z " fill="#8E4CA4" transform="translate(165,29)"/>
<path d="M0 0 C0.680625 0.00773437 1.36125 0.01546875 2.0625 0.0234375 C3.0834375 0.01183594 3.0834375 0.01183594 4.125 0 C6.0625 0.3984375 6.0625 0.3984375 9.0625 3.3984375 C4.4425 3.3984375 -0.1775 3.3984375 -4.9375 3.3984375 C-1.9375 0.3984375 -1.9375 0.3984375 0 0 Z " fill="#F5D9FB" transform="translate(50.9375,32.6015625)"/>
<path d="M0 0 C0.33 0 0.66 0 1 0 C1.32613618 4.67461851 0.70582788 7.16674383 -2 11 C-4.64 10.67 -7.28 10.34 -10 10 C-10.33 9.01 -10.66 8.02 -11 7 C-10.01 7 -9.02 7 -8 7 C-6.66018514 6.6937566 -5.32488113 6.36548445 -4 6 C-4 6.99 -4 7.98 -4 9 C-3.34 9 -2.68 9 -2 9 C-1.34 6.03 -0.68 3.06 0 0 Z " fill="#A073AD" transform="translate(188,185)"/>
<path d="M0 0 C0.66 0.33 1.32 0.66 2 1 C0.515 2.485 0.515 2.485 -1 4 C-0.34 4.66 0.32 5.32 1 6 C0.34 6 -0.32 6 -1 6 C-1.33 8.31 -1.66 10.62 -2 13 C-2.33 13 -2.66 13 -3 13 C-3 11.35 -3 9.7 -3 8 C-3.66 8 -4.32 8 -5 8 C-4.45773019 4.20411134 -2.79872437 2.52788007 0 0 Z " fill="#EBD2F1" transform="translate(202,114)"/>
<path d="M0 0 C0.66 0 1.32 0 2 0 C2 0.66 2 1.32 2 2 C3.32 2 4.64 2 6 2 C6 3.98 6 5.96 6 8 C4.68 8 3.36 8 2 8 C-0.1519437 4.77208445 -0.20086443 3.71599191 0 0 Z " fill="#B383C2" transform="translate(205,120)"/>
<path d="M0 0 C2.89104992 1.29598789 5.03018393 2.49296136 7 5 C7.29296875 7.48046875 7.29296875 7.48046875 7.1875 10.1875 C7.16042969 11.08855469 7.13335937 11.98960937 7.10546875 12.91796875 C7.07066406 13.60503906 7.03585938 14.29210937 7 15 C4.99207152 11.98810728 4.11601284 9.41778932 3 6 C2.36345658 4.6520257 1.70394612 3.31403276 1 2 C0.67 1.34 0.34 0.68 0 0 Z " fill="#AA7CB9" transform="translate(204,148)"/>
<path d="M0 0 C1.32 0 2.64 0 4 0 C4 1.32 4 2.64 4 4 C8.29 4 12.58 4 17 4 C17 4.33 17 4.66 17 5 C11.72 5 6.44 5 1 5 C0.67 3.35 0.34 1.7 0 0 Z " fill="#F7D9FC" transform="translate(19,77)"/>
<path d="M0 0 C-0.33 1.98 -0.66 3.96 -1 6 C-1.66 6 -2.32 6 -3 6 C-3 6.66 -3 7.32 -3 8 C-4.32 8 -5.64 8 -7 8 C-4.18918919 0 -4.18918919 0 0 0 Z " fill="#FBF2FC" transform="translate(108,203)"/>
<path d="M0 0 C1.65 0.33 3.3 0.66 5 1 C4.67 1.99 4.34 2.98 4 4 C3.34 4 2.68 4 2 4 C1.87625 4.61875 1.7525 5.2375 1.625 5.875 C1 8 1 8 -1 10 C-1.66 8.68 -2.32 7.36 -3 6 C-2.01 5.67 -1.02 5.34 0 5 C0 3.35 0 1.7 0 0 Z " fill="#894B9D" transform="translate(180,182)"/>
<path d="M0 0 C2.31 0 4.62 0 7 0 C7 1.32 7 2.64 7 4 C4.03 4 1.06 4 -2 4 C-2 3.34 -2 2.68 -2 2 C-1.34 2 -0.68 2 0 2 C0 1.34 0 0.68 0 0 Z " fill="#8B3CA1" transform="translate(172,181)"/>
<path d="M0 0 C1.11375 0.1546875 1.11375 0.1546875 2.25 0.3125 C1.651875 0.725 1.05375 1.1375 0.4375 1.5625 C-3.88989696 5.02441757 -5.12386371 7.80250067 -5.75 13.3125 C-6.08 13.3125 -6.41 13.3125 -6.75 13.3125 C-7.23403361 6.1730042 -7.23403361 6.1730042 -5.0625 2.3125 C-2.75 0.3125 -2.75 0.3125 0 0 Z " fill="#E7BFEE" transform="translate(195.75,148.6875)"/>
<path d="M0 0 C2.0625 0.4375 2.0625 0.4375 4 1 C4.33 2.32 4.66 3.64 5 5 C2.69 5 0.38 5 -2 5 C-1.125 1.125 -1.125 1.125 0 0 Z " fill="#FBF0FC" transform="translate(120,17)"/>
<path d="M0 0 C-1.98 0.99 -1.98 0.99 -4 2 C-4 2.66 -4 3.32 -4 4 C-3.34 4 -2.68 4 -2 4 C-2.33 5.32 -2.66 6.64 -3 8 C-3.66 7.67 -4.32 7.34 -5 7 C-5 6.01 -5 5.02 -5 4 C-5.99 4 -6.98 4 -8 4 C-7.67 3.01 -7.34 2.02 -7 1 C-4.53721199 -0.231394 -2.7204945 -0.07159196 0 0 Z " fill="#EACAF0" transform="translate(147,196)"/>
<path d="M0 0 C1.32 0.33 2.64 0.66 4 1 C3.67 2.65 3.34 4.3 3 6 C0.69 6 -1.62 6 -4 6 C-4 5.01 -4 4.02 -4 3 C-2.68 2.34 -1.36 1.68 0 1 C0 0.67 0 0.34 0 0 Z " fill="#D9BDDF" transform="translate(29,63)"/>
<path d="M0 0 C0.99 0 1.98 0 3 0 C2.875 1.6875 2.875 1.6875 2 4 C0.02043058 5.69088222 -1.97945196 7.35830472 -4 9 C-4.33 9.99 -4.66 10.98 -5 12 C-5.66 12 -6.32 12 -7 12 C-6.52570343 7.73133091 -3.96478822 5.89066852 -1 3 C-0.67 2.01 -0.34 1.02 0 0 Z " fill="#986AA7" transform="translate(190,57)"/>
<path d="M0 0 C0.66 0.66 1.32 1.32 2 2 C1.54625 2.37125 1.0925 2.7425 0.625 3.125 C-1.47029394 5.54264685 -2.12013285 7.95430602 -3 11 C-2.01 11.33 -1.02 11.66 0 12 C-0.99 12 -1.98 12 -3 12 C-3.33 12.99 -3.66 13.98 -4 15 C-4.63019694 5.98468271 -4.63019694 5.98468271 -2 1.875 C-1.34 1.25625 -0.68 0.6375 0 0 Z " fill="#A376AC" transform="translate(10,100)"/>
<path d="M0 0 C2.99682106 3.54241645 3.39807021 5.58601934 3.23828125 10.09375 C2.95203751 12.38369989 2.27930898 14.08103653 1 16 C-0.14077657 12.57767028 -0.09815117 9.91326783 -0.0625 6.3125 C-0.05347656 5.13300781 -0.04445313 3.95351562 -0.03515625 2.73828125 C-0.02355469 1.83464844 -0.01195313 0.93101563 0 0 Z " fill="#A8604E" transform="translate(106,89)"/>
<path d="M0 0 C2.625 0.375 2.625 0.375 5 1 C5.33 2.32 5.66 3.64 6 5 C4.68 5.33 3.36 5.66 2 6 C1.34 5.01 0.68 4.02 0 3 C-0.66 2.67 -1.32 2.34 -2 2 C-1.34 1.34 -0.68 0.68 0 0 Z " fill="#9651A8" transform="translate(151,27)"/>
<path d="M0 0 C0.969375 0.12375 1.93875 0.2475 2.9375 0.375 C3.5975 1.365 4.2575 2.355 4.9375 3.375 C1.3075 3.375 -2.3225 3.375 -6.0625 3.375 C-3.0625 0.375 -3.0625 0.375 0 0 Z " fill="#F6E7F7" transform="translate(178.0625,176.625)"/>
<path d="M0 0 C0.66 0 1.32 0 2 0 C1.64989059 8.35010941 1.64989059 8.35010941 -1.0625 11.0625 C-1.701875 11.371875 -2.34125 11.68125 -3 12 C-3 9 -3 9 -1 6 C-0.60986284 4.0103005 -0.26797351 2.00980131 0 0 Z " fill="#B18FBC" transform="translate(216,87)"/>
<path d="M0 0 C2.60704898 2.60704898 2.23905333 4.47338241 2.265625 8.02734375 C2 10 2 10 0 13 C-0.66 11.68 -1.32 10.36 -2 9 C-1.34 9 -0.68 9 0 9 C-0.185625 7.88625 -0.37125 6.7725 -0.5625 5.625 C-1 2 -1 2 0 0 Z " fill="#AF89BD" transform="translate(39,67)"/>
<path d="M0 0 C1.98 0.495 1.98 0.495 4 1 C4 2.65 4 4.3 4 6 C2.35 5.67 0.7 5.34 -1 5 C-0.67 3.35 -0.34 1.7 0 0 Z " fill="#F9F7FB" transform="translate(20,67)"/>
<path d="M0 0 C0.33 0 0.66 0 1 0 C1 2.31 1 4.62 1 7 C0.01 7.495 0.01 7.495 -1 8 C-1.99 7.67 -2.98 7.34 -4 7 C-4 5.02 -4 3.04 -4 1 C-3.67 1.66 -3.34 2.32 -3 3 C-2.01 3 -1.02 3 0 3 C0 2.01 0 1.02 0 0 Z " fill="#86349F" transform="translate(63,40)"/>
<path d="M0 0 C0 0.66 0 1.32 0 2 C0.99 2.33 1.98 2.66 3 3 C1.54257537 3.08096803 0.08387193 3.13917774 -1.375 3.1875 C-2.18710938 3.22230469 -2.99921875 3.25710937 -3.8359375 3.29296875 C-4.55007812 3.19628906 -5.26421875 3.09960938 -6 3 C-6.66 2.01 -7.32 1.02 -8 0 C-4.71023192 -1.09658936 -3.28696233 -0.79953138 0 0 Z " fill="#C19ACC" transform="translate(179,196)"/>
<path d="M0 0 C8.19256018 -0.4726477 8.19256018 -0.4726477 11.5625 1.5 C12.036875 1.995 12.51125 2.49 13 3 C12.01 3 11.02 3 10 3 C10 4.65 10 6.3 10 8 C9.67 8 9.34 8 9 8 C8.67 5.69 8.34 3.38 8 1 C3.545 1.495 3.545 1.495 -1 2 C-0.67 1.34 -0.34 0.68 0 0 Z " fill="#9667A3" transform="translate(71,192)"/>
<path d="M0 0 C2.63978826 3.18595135 5.10498388 6.30970546 7 10 C6.67 10.66 6.34 11.32 6 12 C4.5 10.625 4.5 10.625 3 9 C3 8.34 3 7.68 3 7 C2.34 7 1.68 7 1 7 C0.67 4.69 0.34 2.38 0 0 Z " fill="#7C5546" transform="translate(170,133)"/>
<path d="M0 0 C0.66 0 1.32 0 2 0 C2 2.97 2 5.94 2 9 C-0.31 8.67 -2.62 8.34 -5 8 C-4.67 7.01 -4.34 6.02 -4 5 C-4 5.66 -4 6.32 -4 7 C-2.68 7 -1.36 7 0 7 C0 4.69 0 2.38 0 0 Z " fill="#D1B5D7" transform="translate(12,103)"/>
<path d="M0 0 C0.33 0 0.66 0 1 0 C1.33 3.63 1.66 7.26 2 11 C1.01 10.67 0.02 10.34 -1 10 C-1.02689216 8.52093108 -1.04634621 7.04172517 -1.0625 5.5625 C-1.07410156 4.73878906 -1.08570313 3.91507813 -1.09765625 3.06640625 C-1 1 -1 1 0 0 Z " fill="#FDF2FE" transform="translate(15,145)"/>
<path d="M0 0 C-1.45255699 3.82946843 -3.42895561 5.12050295 -7 7 C-7 4 -7 4 -5.1875 1.8125 C-3 0 -3 0 0 0 Z " fill="#F4E1F7" transform="translate(193,61)"/>
<path d="M0 0 C0.556875 0.268125 1.11375 0.53625 1.6875 0.8125 C0.90375 1.245625 0.12 1.67875 -0.6875 2.125 C-3.88101138 4.1779716 -5.07638863 5.79722112 -5.9375 9.5 C-6.06125 10.263125 -6.185 11.02625 -6.3125 11.8125 C-6.6425 11.8125 -6.9725 11.8125 -7.3125 11.8125 C-7.74747796 7.37572479 -7.78752251 5.44586334 -5.0625 1.8125 C-2.3125 -0.1875 -2.3125 -0.1875 0 0 Z " fill="#63321F" transform="translate(112.3125,134.1875)"/>
<path d="M0 0 C0.99 0 1.98 0 3 0 C5.67927341 4.01891012 5.15601248 6.24161923 5 11 C4.67 10.01 4.34 9.02 4 8 C3.01 7.67 2.02 7.34 1 7 C1.66 7 2.32 7 3 7 C2.01 4.69 1.02 2.38 0 0 Z " fill="#AE87BB" transform="translate(213,116)"/>
<path d="M0 0 C0.33 0 0.66 0 1 0 C1 3.96 1 7.92 1 12 C-0.32 11.34 -1.64 10.68 -3 10 C-2.67 9.01 -2.34 8.02 -2 7 C-1.34 7 -0.68 7 0 7 C0 4.69 0 2.38 0 0 Z " fill="#D1AFDB" transform="translate(79,195)"/>
<path d="M0 0 C0.33 0.66 0.66 1.32 1 2 C-0.05078125 3.51953125 -0.05078125 3.51953125 -2 5 C-5.35546875 5.07421875 -5.35546875 5.07421875 -9.1875 4.6875 C-11.09595703 4.50767578 -11.09595703 4.50767578 -13.04296875 4.32421875 C-14.50669922 4.16373047 -14.50669922 4.16373047 -16 4 C-16 3.67 -16 3.34 -16 3 C-15.01257813 2.95101562 -14.02515625 2.90203125 -13.0078125 2.8515625 C-11.72648437 2.77679688 -10.44515625 2.70203125 -9.125 2.625 C-7.21074219 2.52058594 -7.21074219 2.52058594 -5.2578125 2.4140625 C-1.91938301 2.32758894 -1.91938301 2.32758894 0 0 Z " fill="#9D66AD" transform="translate(38,79)"/>
<path d="M0 0 C0.99 0 1.98 0 3 0 C1.84826645 2.46800047 0.95216435 4.04783565 -1 6 C-1.99 6 -2.98 6 -4 6 C-2.84826645 3.53199953 -1.95216435 1.95216435 0 0 Z " fill="#F8EBFB" transform="translate(184,61)"/>
<path d="M0 0 C2.86724686 0.57344937 3.8614515 0.8614515 6 3 C5.67 3.66 5.34 4.32 5 5 C-0.94 4.01 -0.94 4.01 -7 3 C-7 2.67 -7 2.34 -7 2 C-3.535 1.505 -3.535 1.505 0 1 C0 0.67 0 0.34 0 0 Z " fill="#AC72BA" transform="translate(91,25)"/>
<path d="M0 0 C0.78375 0.04125 1.5675 0.0825 2.375 0.125 C2.375 0.785 2.375 1.445 2.375 2.125 C1.26125 2.558125 1.26125 2.558125 0.125 3 C-2.19239797 3.94802644 -4.40417115 4.97345911 -6.625 6.125 C-3.85227273 0.18344156 -3.85227273 0.18344156 0 0 Z " fill="#F2D9F6" transform="translate(152.625,24.875)"/>
<path d="M0 0 C1.423125 0.2784375 1.423125 0.2784375 2.875 0.5625 C5.89868793 1.28686632 5.89868793 1.28686632 8 0 C8.33 0.99 8.66 1.98 9 3 C2.9453125 3.9765625 2.9453125 3.9765625 1 4 C0.34 3.34 -0.32 2.68 -1 2 C-0.67 1.34 -0.34 0.68 0 0 Z " fill="#EDD1F2" transform="translate(202,96)"/>
<path d="M0 0 C0.66 0 1.32 0 2 0 C2.33 1.98 2.66 3.96 3 6 C1.68 6 0.36 6 -1 6 C-1.042721 4.33388095 -1.04063832 2.66617115 -1 1 C-0.67 0.67 -0.34 0.34 0 0 Z " fill="#8A29A8" transform="translate(205,90)"/>
<path d="M0 0 C0.33 1.32 0.66 2.64 1 4 C2.65 4 4.3 4 6 4 C6 4.66 6 5.32 6 6 C3.69 6 1.38 6 -1 6 C-0.67 4.02 -0.34 2.04 0 0 Z " fill="#F3D7F9" transform="translate(137,201)"/>
<path d="M0 0 C2 2 2 2 2.125 5.625 C2.08375 6.73875 2.0425 7.8525 2 9 C0.35 9 -1.3 9 -3 9 C-2.01 8.67 -1.02 8.34 0 8 C-0.185625 7.05125 -0.37125 6.1025 -0.5625 5.125 C-1 2 -1 2 0 0 Z " fill="#BE98C7" transform="translate(155,199)"/>
<path d="M0 0 C0.33 0 0.66 0 1 0 C1.33 2.97 1.66 5.94 2 9 C3.32 9.33 4.64 9.66 6 10 C3.03 9.67 0.06 9.34 -3 9 C-2.01 8.67 -1.02 8.34 0 8 C0 5.36 0 2.72 0 0 Z " fill="#B88AC5" transform="translate(44,171)"/>
<path d="M0 0 C2.40072955 2.88087546 4.47291037 5.56404834 6 9 C5.01 9.495 5.01 9.495 4 10 C0 4.5 0 4.5 0 0 Z " fill="#7C564A" transform="translate(137,80)"/>
<path d="M0 0 C0.33 1.32 0.66 2.64 1 4 C3.31 4 5.62 4 8 4 C8 4.66 8 5.32 8 6 C5.03 6 2.06 6 -1 6 C-0.67 4.02 -0.34 2.04 0 0 Z " fill="#7E3597" transform="translate(25,74)"/>
<path d="M0 0 C0.6875 1.6875 0.6875 1.6875 1 4 C-0.25 6.6875 -0.25 6.6875 -2 9 C-2.99 9.33 -3.98 9.66 -5 10 C-3.66511872 6.40608886 -2.03977277 3.24509304 0 0 Z " fill="#7A5347" transform="translate(106,60)"/>
<path d="M0 0 C0.33 0.66 0.66 1.32 1 2 C4.63 2 8.26 2 12 2 C12 2.33 12 2.66 12 3 C8.04 3.66 4.08 4.32 0 5 C0 3.35 0 1.7 0 0 Z " fill="#D3A3DD" transform="translate(79,22)"/>
<path d="M0 0 C0.66 0 1.32 0 2 0 C2 1.32 2 2.64 2 4 C0.02 4 -1.96 4 -4 4 C-4 3.01 -4 2.02 -4 1 C-2.02 1.495 -2.02 1.495 0 2 C0 1.34 0 0.68 0 0 Z " fill="#F9E3FB" transform="translate(153,203)"/>
<path d="M0 0 C0.33 0 0.66 0 1 0 C1.36923077 7.50769231 1.36923077 7.50769231 -0.5 10 C-0.995 10.33 -1.49 10.66 -2 11 C-2.66 10.34 -3.32 9.68 -4 9 C-3.525625 8.62875 -3.05125 8.2575 -2.5625 7.875 C-0.47794198 5.37353038 -0.35378509 3.18406582 0 0 Z " fill="#805B4F" transform="translate(122,140)"/>
<path d="M0 0 C0.66 0.99 1.32 1.98 2 3 C1.67 3.99 1.34 4.98 1 6 C-0.32 6 -1.64 6 -3 6 C-2.42655063 3.13275314 -2.1385485 2.1385485 0 0 Z " fill="#FEFBFE" transform="translate(11,104)"/>
<path d="M0 0 C1.98 0.495 1.98 0.495 4 1 C4 2.32 4 3.64 4 5 C2.35 5 0.7 5 -1 5 C-0.67 3.35 -0.34 1.7 0 0 Z " fill="#9C68AA" transform="translate(149,200)"/>
<path d="M0 0 C1.32 0 2.64 0 4 0 C4 2.31 4 4.62 4 7 C3.67 6.01 3.34 5.02 3 4 C2.01 4.33 1.02 4.66 0 5 C0 3.35 0 1.7 0 0 Z " fill="#B17AC0" transform="translate(195,123)"/>
<path d="M0 0 C0.66 0.66 1.32 1.32 2 2 C1.01 2.66 0.02 3.32 -1 4 C-1.66 4.99 -2.32 5.98 -3 7 C-3.33 5.02 -3.66 3.04 -4 1 C-2.125 0.375 -2.125 0.375 0 0 Z " fill="#863498" transform="translate(11,111)"/>
<path d="M0 0 C0.103125 0.639375 0.20625 1.27875 0.3125 1.9375 C0.539375 2.618125 0.76625 3.29875 1 4 C1.99 4.33 2.98 4.66 4 5 C4 5.99 4 6.98 4 8 C2.68 8 1.36 8 0 8 C0 5.36 0 2.72 0 0 Z " fill="#FCF2FD" transform="translate(111,213)"/>
<path d="M0 0 C5.57142857 5.14285714 5.57142857 5.14285714 6 9 C0.42857143 3.85714286 0.42857143 3.85714286 0 0 Z " fill="#6D3E31" transform="translate(131,73)"/>
<path d="M0 0 C1.2065625 0.0309375 1.2065625 0.0309375 2.4375 0.0625 C2.4375 1.0525 2.4375 2.0425 2.4375 3.0625 C0.7875 3.3925 -0.8625 3.7225 -2.5625 4.0625 C-2.8925 3.0725 -3.2225 2.0825 -3.5625 1.0625 C-2.5625 0.0625 -2.5625 0.0625 0 0 Z " fill="#F5E3F7" transform="translate(26.5625,62.9375)"/>
</svg>
